<svg xmlns="http://www.w3.org/2000/svg" xmlns:xlink="http://www.w3.org/1999/xlink" width="500" zoomAndPan="magnify" viewBox="0 0 375 374.999991" height="500" preserveAspectRatio="xMidYMid meet" version="1.0"><defs><g/><clipPath id="c19f63aaee"><path d="M 82.136719 82.167969 L 292.886719 82.167969 L 292.886719 292.917969 L 82.136719 292.917969 Z M 82.136719 82.167969 " clip-rule="nonzero"/></clipPath><clipPath id="8b85361df9"><path d="M 117.457031 117.488281 L 257.707031 117.488281 L 257.707031 257.738281 L 117.457031 257.738281 Z M 117.457031 117.488281 " clip-rule="nonzero"/></clipPath><clipPath id="ecdb56c377"><path d="M 147 146.097656 L 190 146.097656 L 190 224 L 147 224 Z M 147 146.097656 " clip-rule="nonzero"/></clipPath><clipPath id="9bef710fb4"><path d="M 234 166 L 237.988281 166 L 237.988281 221 L 234 221 Z M 234 166 " clip-rule="nonzero"/></clipPath><clipPath id="d70675f8a5"><path d="M 136.738281 169 L 143 169 L 143 227 L 136.738281 227 Z M 136.738281 169 " clip-rule="nonzero"/></clipPath><clipPath id="21297de9a2"><path d="M 179 224 L 194 224 L 194 228.597656 L 179 228.597656 Z M 179 224 " clip-rule="nonzero"/></clipPath></defs><g clip-path="url(#c19f63aaee)"><path fill="#832f1e" d="M 187.5 292.894531 C 129.417969 292.894531 82.136719 245.609375 82.136719 187.53125 C 82.136719 129.453125 129.417969 82.167969 187.5 82.167969 C 245.578125 82.167969 292.863281 129.453125 292.863281 187.53125 C 292.863281 245.609375 245.578125 292.894531 187.5 292.894531 Z M 187.5 83.726562 C 130.25 83.726562 83.691406 130.28125 83.691406 187.53125 C 83.691406 244.78125 130.25 291.335938 187.5 291.335938 C 244.75 291.335938 291.304688 244.78125 291.304688 187.53125 C 291.304688 130.28125 244.75 83.726562 187.5 83.726562 Z M 187.5 83.726562 " fill-opacity="1" fill-rule="nonzero"/></g><g clip-path="url(#8b85361df9)"><path fill="#832f1e" d="M 187.5 257.574219 C 148.886719 257.574219 117.457031 226.140625 117.457031 187.53125 C 117.457031 148.921875 148.886719 117.488281 187.5 117.488281 C 226.109375 117.488281 257.542969 148.921875 257.542969 187.53125 C 257.542969 226.140625 226.109375 257.574219 187.5 257.574219 Z M 187.5 118.523438 C 149.441406 118.523438 118.492188 149.472656 118.492188 187.53125 C 118.492188 225.589844 149.441406 256.539062 187.5 256.539062 C 225.554688 256.539062 256.507812 225.589844 256.507812 187.53125 C 256.507812 149.472656 225.554688 118.523438 187.5 118.523438 Z M 187.5 118.523438 " fill-opacity="1" fill-rule="nonzero"/></g><path fill="#832f1e" d="M 152.042969 160.140625 C 149.457031 159.5625 146.917969 160.03125 144.371094 160.585938 C 143.976562 160.671875 143.648438 161.105469 143.667969 161.507812 C 143.734375 162.730469 144.003906 163.902344 144.074219 165.101562 C 144.222656 167.542969 144.367188 169.984375 144.511719 172.429688 C 144.628906 174.386719 144.730469 176.351562 144.921875 178.304688 C 145.117188 180.335938 145.089844 182.414062 145.121094 184.449219 C 145.160156 186.535156 145.160156 188.621094 145.15625 190.707031 C 145.128906 199.550781 144.886719 208.40625 145.453125 217.238281 C 145.496094 217.867188 145.992188 218.191406 146.585938 218.101562 C 146.710938 218.082031 146.835938 218.066406 146.960938 218.046875 C 147.027344 218.039062 147.089844 218.027344 147.15625 218.019531 C 147.429688 217.984375 146.960938 218.046875 147.191406 218.015625 C 147.46875 217.980469 147.746094 217.941406 148.023438 217.902344 C 148.230469 217.875 147.796875 217.933594 148.007812 217.90625 C 148.070312 217.898438 148.128906 217.890625 148.1875 217.882812 C 148.316406 217.863281 148.445312 217.847656 148.574219 217.832031 C 148.890625 217.792969 149.207031 217.753906 149.523438 217.714844 C 150.253906 217.628906 150.984375 217.546875 151.71875 217.476562 C 155.789062 217.066406 159.878906 216.832031 163.96875 216.863281 C 168.519531 216.894531 173.117188 217.226562 177.527344 218.378906 C 179.507812 218.898438 181.320312 219.550781 183.066406 220.554688 C 184.574219 221.417969 185.894531 222.539062 186.804688 223.957031 C 186.859375 224.042969 186.914062 224.132812 186.96875 224.222656 C 187.617188 225.324219 189.328125 224.328125 188.675781 223.226562 C 186.632812 219.765625 182.929688 217.816406 179.199219 216.675781 C 174.789062 215.324219 170.09375 214.9375 165.503906 214.855469 C 159.085938 214.734375 152.535156 215.199219 146.214844 216.355469 C 146.179688 216.359375 146.144531 216.367188 146.109375 216.371094 C 146.488281 216.660156 146.867188 216.949219 147.246094 217.238281 C 146.417969 209.011719 146.648438 200.726562 146.667969 192.472656 C 146.679688 188.316406 146.652344 184.160156 146.472656 180.011719 C 146.378906 177.824219 146.167969 175.640625 146.027344 173.457031 C 145.855469 170.84375 145.710938 168.234375 145.582031 165.621094 C 145.515625 164.25 145.648438 162.878906 145.585938 161.507812 C 145.351562 161.816406 145.117188 162.125 144.878906 162.429688 C 147.1875 161.945312 149.457031 161.675781 151.816406 161.792969 C 152.765625 161.839844 152.964844 160.347656 152.042969 160.140625 " fill-opacity="1" fill-rule="nonzero"/><g clip-path="url(#ecdb56c377)"><path fill="#832f1e" d="M 188.667969 222.769531 C 188.367188 221.910156 188.164062 221.332031 187.667969 220.5625 C 187.171875 219.785156 186.625 219.046875 186.058594 218.316406 C 184.835938 216.738281 183.449219 215.289062 181.945312 213.980469 C 178.234375 210.742188 173.746094 208.5 168.957031 207.382812 C 162.046875 205.765625 154.886719 206.59375 148.136719 208.539062 C 148.546875 208.949219 148.957031 209.359375 149.363281 209.769531 C 151.652344 201.765625 152.175781 193.382812 152.15625 185.097656 C 152.148438 181.144531 151.917969 177.195312 151.875 173.242188 C 151.839844 170.226562 152.308594 167.214844 152.609375 164.222656 C 153.179688 158.578125 153.429688 152.359375 149.507812 147.785156 C 149.277344 148.347656 149.042969 148.90625 148.808594 149.46875 C 155.984375 148.527344 163.34375 149.308594 170.1875 151.632812 C 176.6875 153.835938 182.609375 157.574219 187.511719 162.359375 C 188.625 163.445312 190.328125 161.742188 189.214844 160.65625 C 184.175781 155.734375 177.992188 152.097656 171.367188 149.757812 C 164.519531 147.339844 156.878906 146.355469 149.667969 147.382812 C 149.296875 147.433594 148.921875 147.480469 148.546875 147.53125 C 147.746094 147.640625 147.6875 148.691406 148.113281 149.179688 C 150.011719 151.371094 150.625 154.34375 150.785156 157.167969 C 150.96875 160.347656 150.578125 163.539062 150.234375 166.695312 C 150.070312 168.207031 149.910156 169.71875 149.820312 171.234375 C 149.726562 172.796875 149.796875 174.347656 149.851562 175.910156 C 149.996094 180.054688 150.121094 184.203125 150.074219 188.351562 C 149.992188 195.386719 149.382812 202.449219 147.441406 209.238281 C 147.234375 209.964844 147.941406 210.675781 148.667969 210.464844 C 154.988281 208.640625 161.773438 207.898438 168.25 209.332031 C 172.890625 210.359375 177.210938 212.554688 180.832031 215.628906 C 182.257812 216.835938 183.5625 218.183594 184.757812 219.617188 C 185.304688 220.273438 185.75 220.863281 186.226562 221.523438 C 186.71875 222.210938 187.171875 222.675781 187.730469 223.316406 C 188.097656 223.734375 188.851562 223.296875 188.667969 222.769531 " fill-opacity="1" fill-rule="nonzero"/></g><path fill="#832f1e" d="M 188.507812 162.300781 L 188.578125 162.304688 C 188.71875 162.304688 188.714844 162.089844 188.578125 162.085938 C 188.417969 162.085938 188.253906 162.082031 188.089844 162.082031 C 187.945312 162.078125 187.945312 162.308594 188.089844 162.308594 C 188.140625 162.308594 188.1875 162.308594 188.21875 162.269531 C 188.257812 162.21875 188.257812 162.171875 188.21875 162.121094 C 188.1875 162.078125 188.140625 162.078125 188.089844 162.082031 C 187.945312 162.082031 187.945312 162.3125 188.089844 162.308594 C 188.253906 162.308594 188.417969 162.304688 188.578125 162.304688 C 188.714844 162.300781 188.71875 162.085938 188.578125 162.085938 L 188.507812 162.085938 C 188.367188 162.089844 188.367188 162.300781 188.507812 162.300781 " fill-opacity="1" fill-rule="nonzero"/><path fill="#832f1e" d="M 225.589844 163.035156 C 226.609375 162.964844 227.347656 162.546875 228.238281 162.117188 C 228.003906 162.230469 228.304688 162.097656 228.355469 162.082031 C 228.464844 162.046875 228.574219 162.027344 228.683594 162.007812 C 228.484375 162.042969 228.875 162 228.917969 162 C 229.074219 161.996094 229.234375 162.007812 229.390625 162.019531 C 230.371094 162.09375 231.359375 162.453125 232.285156 162.765625 C 232.050781 162.457031 231.816406 162.148438 231.582031 161.839844 C 231.523438 163.03125 231.664062 164.230469 231.605469 165.417969 C 231.484375 167.847656 231.355469 170.277344 231.199219 172.703125 C 231.074219 174.652344 230.964844 176.609375 230.765625 178.550781 C 230.558594 180.582031 230.582031 182.664062 230.539062 184.699219 C 230.496094 186.789062 230.484375 188.878906 230.484375 190.964844 C 230.480469 199.730469 230.800781 208.542969 229.917969 217.277344 C 230.289062 216.992188 230.660156 216.707031 231.03125 216.425781 C 225.34375 215.382812 219.472656 214.960938 213.695312 214.894531 C 209.03125 214.839844 204.316406 215.082031 199.738281 216.035156 C 195.855469 216.84375 191.792969 218.257812 188.964844 221.160156 C 188.355469 221.78125 187.824219 222.480469 187.378906 223.226562 C 186.71875 224.324219 188.429688 225.320312 189.085938 224.226562 C 189.9375 222.808594 191.1875 221.710938 192.628906 220.832031 C 194.332031 219.792969 196.078125 219.15625 198.011719 218.609375 C 202.375 217.378906 206.953125 217.019531 211.472656 216.921875 C 215.695312 216.832031 219.925781 217.039062 224.132812 217.410156 C 225.585938 217.535156 227.039062 217.6875 228.488281 217.867188 C 228.617188 217.882812 228.746094 217.898438 228.875 217.914062 C 228.929688 217.921875 229.148438 217.949219 228.875 217.914062 C 228.992188 217.929688 229.113281 217.941406 229.234375 217.957031 C 229.453125 217.984375 229.671875 218.011719 229.890625 218.039062 C 230.039062 218.058594 230.191406 218.078125 230.34375 218.097656 C 230.089844 218.0625 230.277344 218.089844 230.445312 218.113281 C 230.488281 218.117188 230.523438 218.125 230.5625 218.128906 C 231.152344 218.214844 231.640625 217.898438 231.679688 217.277344 C 232.222656 209.023438 232.054688 200.746094 232.003906 192.480469 C 231.976562 188.324219 231.988281 184.167969 232.164062 180.011719 C 232.253906 177.867188 232.460938 175.726562 232.59375 173.582031 C 232.753906 170.988281 232.90625 168.394531 233.066406 165.800781 C 233.144531 164.464844 233.421875 163.195312 233.496094 161.839844 C 233.519531 161.402344 233.183594 161.050781 232.792969 160.917969 C 231.261719 160.394531 229.394531 159.726562 227.765625 160.230469 C 226.847656 160.519531 226.1875 161.1875 225.367188 161.382812 C 224.453125 161.605469 224.636719 163.101562 225.589844 163.035156 " fill-opacity="1" fill-rule="nonzero"/><path fill="#832f1e" d="M 188.613281 223.203125 C 188.828125 222.8125 189.191406 222.445312 189.375 222.066406 C 189.601562 221.601562 189.878906 221.152344 190.179688 220.734375 C 190.789062 219.886719 191.453125 219.117188 192.203125 218.386719 C 193.941406 216.699219 195.988281 215.398438 198.101562 214.238281 C 202.910156 211.597656 208.367188 209.960938 213.800781 209.269531 C 218.578125 208.660156 223.910156 208.613281 228.414062 210.558594 C 229.164062 210.882812 230.152344 210.355469 229.878906 209.433594 C 227.550781 201.480469 227.109375 193.164062 227.1875 184.921875 C 227.226562 181.050781 227.519531 177.175781 227.507812 173.304688 C 227.503906 170.285156 227.019531 167.273438 226.71875 164.269531 C 226.242188 159.523438 225.777344 153.542969 229.199219 149.695312 C 229.816406 149 229.347656 148.125 228.5 148.011719 C 214.144531 146.101562 198.988281 150.53125 188.175781 160.269531 C 187.871094 160.542969 187.574219 160.824219 187.277344 161.105469 C 186.148438 162.175781 187.855469 163.875 188.980469 162.808594 C 199.449219 152.847656 214.175781 148.15625 228.5 149.984375 C 228.269531 149.421875 228.035156 148.863281 227.804688 148.300781 C 223.507812 153.191406 224.125 159.964844 224.789062 165.984375 C 225.113281 168.925781 225.46875 171.851562 225.359375 174.816406 C 225.210938 178.929688 225.085938 183.046875 225.113281 187.160156 C 225.164062 194.828125 225.789062 202.578125 227.957031 209.960938 C 228.441406 209.585938 228.933594 209.210938 229.421875 208.835938 C 224.640625 206.769531 219.246094 206.5625 214.132812 207.160156 C 208.507812 207.820312 202.957031 209.4375 197.910156 212.023438 C 195.425781 213.296875 193.0625 214.914062 191.0625 216.863281 C 190.179688 217.730469 189.382812 218.699219 188.707031 219.734375 C 188.402344 220.203125 188.15625 220.707031 187.910156 221.207031 C 187.671875 221.691406 187.636719 222.386719 187.566406 222.917969 C 187.492188 223.492188 188.355469 223.660156 188.613281 223.203125 " fill-opacity="1" fill-rule="nonzero"/><path fill="#832f1e" d="M 188.222656 162.417969 L 188.152344 162.417969 C 188.011719 162.414062 188.011719 162.632812 188.152344 162.632812 C 188.316406 162.636719 188.480469 162.636719 188.640625 162.640625 C 188.789062 162.640625 188.789062 162.410156 188.640625 162.410156 C 188.582031 162.410156 188.535156 162.417969 188.496094 162.472656 C 188.476562 162.5 188.476562 162.550781 188.496094 162.578125 C 188.535156 162.632812 188.582031 162.640625 188.640625 162.640625 C 188.789062 162.636719 188.789062 162.40625 188.640625 162.410156 C 188.480469 162.414062 188.316406 162.414062 188.152344 162.417969 C 188.011719 162.417969 188.011719 162.632812 188.152344 162.632812 L 188.222656 162.632812 C 188.359375 162.628906 188.359375 162.417969 188.222656 162.417969 " fill-opacity="1" fill-rule="nonzero"/><path fill="#832f1e" d="M 187.929688 161.523438 C 187.359375 170.214844 188.863281 178.902344 189.023438 187.585938 C 189.105469 191.933594 189.082031 196.308594 188.863281 200.652344 C 188.71875 203.542969 188.457031 206.441406 188.230469 209.332031 C 188.035156 211.824219 187.84375 214.316406 187.710938 216.8125 C 187.609375 218.796875 187.4375 220.808594 187.578125 222.792969 C 187.636719 223.59375 188.902344 223.578125 188.816406 222.792969 C 188.558594 220.417969 188.738281 217.96875 188.898438 215.59375 C 189.085938 212.800781 189.320312 210.003906 189.652344 207.226562 C 190.582031 199.496094 190.648438 191.726562 190.175781 183.957031 C 189.722656 176.472656 188.96875 169.003906 188.457031 161.523438 C 188.433594 161.183594 187.953125 161.183594 187.929688 161.523438 " fill-opacity="1" fill-rule="nonzero"/><path fill="#832f1e" d="M 141.046875 167.855469 C 141.734375 168.066406 142.488281 168.03125 143.203125 168.058594 C 143.789062 168.082031 144.417969 168.121094 144.992188 167.992188 C 145.742188 167.820312 145.742188 166.648438 144.992188 166.480469 C 144.417969 166.347656 143.789062 166.390625 143.203125 166.414062 C 142.488281 166.441406 141.734375 166.402344 141.046875 166.617188 C 140.433594 166.804688 140.433594 167.667969 141.046875 167.855469 " fill-opacity="1" fill-rule="nonzero"/><path fill="#832f1e" d="M 232.800781 168.292969 C 233.253906 168.332031 233.679688 168.101562 233.933594 167.734375 C 233.765625 167.976562 233.574219 168.070312 233.292969 168.105469 C 233.355469 168.097656 233.417969 168.105469 233.484375 168.105469 C 233.898438 168.117188 234.273438 168.191406 234.648438 167.957031 C 235.1875 167.621094 235.1875 166.851562 234.648438 166.515625 C 234.1875 166.226562 233.3125 166.300781 232.808594 166.53125 C 232.648438 166.605469 232.535156 166.769531 232.449219 166.914062 C 232.609375 166.648438 232.546875 166.78125 232.476562 166.859375 C 232.414062 166.925781 232.339844 166.972656 232.28125 167.042969 C 231.84375 167.542969 232.152344 168.238281 232.800781 168.292969 " fill-opacity="1" fill-rule="nonzero"/><path fill="#832f1e" d="M 141.019531 167.234375 C 141.050781 169.113281 141.34375 170.976562 141.421875 172.859375 C 141.5 174.835938 141.472656 176.816406 141.394531 178.792969 C 141.242188 182.71875 140.871094 186.632812 140.667969 190.558594 C 140.214844 199.210938 140.519531 207.875 140.445312 216.53125 C 140.429688 218.496094 140.523438 220.464844 140.515625 222.429688 C 140.511719 223.335938 141.925781 223.335938 141.917969 222.429688 C 141.878906 218.105469 141.4375 213.777344 141.640625 209.449219 C 141.742188 207.273438 141.628906 205.066406 141.628906 202.886719 C 141.628906 200.710938 141.644531 198.535156 141.683594 196.355469 C 141.832031 188.382812 142.851562 180.367188 142.285156 172.394531 C 142.15625 170.640625 142.03125 168.835938 141.40625 167.183594 C 141.332031 166.984375 141.015625 167 141.019531 167.234375 " fill-opacity="1" fill-rule="nonzero"/><path fill="#832f1e" d="M 141.058594 223.375 C 144.425781 223.820312 147.828125 223.605469 151.207031 223.378906 C 154.75 223.140625 158.28125 222.765625 161.820312 222.449219 C 165.265625 222.140625 168.722656 221.894531 172.183594 221.859375 C 173.890625 221.839844 175.597656 221.886719 177.300781 221.996094 C 178.183594 222.054688 179.070312 222.136719 179.949219 222.234375 C 180.824219 222.335938 181.640625 222.535156 182.507812 222.296875 C 183.074219 222.140625 183.109375 221.425781 182.660156 221.121094 C 181.976562 220.65625 181.230469 220.601562 180.429688 220.496094 C 179.550781 220.382812 178.667969 220.300781 177.785156 220.234375 C 176.085938 220.105469 174.378906 220.074219 172.675781 220.085938 C 169.132812 220.105469 165.59375 220.382812 162.066406 220.707031 C 158.527344 221.035156 154.992188 221.425781 151.453125 221.742188 C 147.992188 222.050781 144.523438 222.152344 141.058594 222.386719 C 140.40625 222.429688 140.4375 223.292969 141.058594 223.375 " fill-opacity="1" fill-rule="nonzero"/><path fill="#832f1e" d="M 181.300781 221.375 C 181.21875 222.050781 181.960938 222.835938 182.40625 223.261719 C 183 223.832031 183.644531 224.355469 184.371094 224.742188 C 185.910156 225.570312 187.707031 225.566406 189.386719 225.304688 C 190.902344 225.066406 192.339844 224.386719 193.492188 223.378906 C 194.417969 222.570312 195.59375 220.515625 194.589844 219.394531 C 194.28125 219.046875 193.746094 219.183594 193.515625 219.53125 C 193.195312 220.015625 193.355469 220.644531 193.132812 221.175781 C 192.914062 221.683594 192.546875 222.074219 192.128906 222.421875 C 191.234375 223.164062 189.871094 223.433594 188.757812 223.613281 C 187.46875 223.820312 186.09375 223.691406 184.921875 223.089844 C 184.316406 222.78125 183.796875 222.339844 183.289062 221.890625 C 182.863281 221.515625 182.054688 220.976562 181.464844 221.160156 C 181.359375 221.191406 181.3125 221.269531 181.300781 221.375 " fill-opacity="1" fill-rule="nonzero"/><path fill="#832f1e" d="M 194.414062 220.167969 C 195.792969 220.0625 197.144531 219.90625 198.535156 219.929688 C 200.019531 219.953125 201.5 220.097656 202.980469 220.148438 C 204.753906 220.207031 206.550781 220.0625 208.324219 220.023438 C 210.265625 219.976562 212.214844 219.9375 214.160156 219.996094 C 217.792969 220.109375 221.425781 220.320312 225.050781 220.554688 C 226.835938 220.667969 228.621094 220.773438 230.40625 220.851562 C 231.351562 220.894531 232.296875 220.925781 233.242188 220.949219 C 234.183594 220.972656 235.15625 221.046875 236.066406 220.761719 C 236.804688 220.535156 236.804688 219.5 236.066406 219.269531 C 235.234375 219.007812 234.363281 219.042969 233.5 219.019531 C 232.554688 218.996094 231.609375 218.953125 230.664062 218.90625 C 228.789062 218.8125 226.921875 218.679688 225.050781 218.558594 C 221.332031 218.3125 217.621094 218.105469 213.894531 218.125 C 212.035156 218.136719 210.179688 218.144531 208.324219 218.195312 C 206.480469 218.246094 204.628906 218.394531 202.785156 218.359375 C 201.296875 218.328125 199.808594 218.210938 198.316406 218.207031 C 196.929688 218.203125 195.292969 218.238281 194.109375 219.046875 C 193.65625 219.355469 193.769531 220.21875 194.414062 220.167969 " fill-opacity="1" fill-rule="nonzero"/><g clip-path="url(#9bef710fb4)"><path fill="#832f1e" d="M 234.28125 166.960938 C 233.875 168.949219 234.144531 171.136719 234.40625 173.128906 C 234.679688 175.191406 235.058594 177.234375 235.355469 179.292969 C 235.96875 183.535156 235.992188 187.867188 236.074219 192.144531 C 236.160156 196.429688 236.433594 200.726562 236.3125 205.011719 C 236.25 207.125 236.074219 209.238281 235.769531 211.328125 C 235.621094 212.351562 235.511719 213.378906 235.402344 214.410156 C 235.300781 215.359375 235.128906 216.324219 235.097656 217.277344 C 235.078125 217.816406 235.035156 218.355469 234.996094 218.894531 C 234.972656 219.222656 234.929688 219.542969 235.03125 219.867188 C 235.054688 219.945312 235.074219 220.019531 235.097656 220.09375 C 235.21875 220.484375 235.089844 220.320312 235.109375 220.015625 C 235.042969 220.984375 236.542969 220.976562 236.609375 220.015625 L 236.613281 219.980469 C 236.539062 220.160156 236.464844 220.335938 236.394531 220.511719 C 237.085938 219.8125 236.90625 218.359375 236.941406 217.453125 C 237.015625 215.582031 237.226562 213.65625 237.496094 211.804688 C 238.109375 207.585938 238.199219 203.347656 237.992188 199.09375 C 237.78125 194.792969 237.769531 190.488281 237.5625 186.1875 C 237.457031 184.0625 237.316406 181.929688 237.035156 179.820312 C 236.761719 177.761719 236.359375 175.722656 236 173.675781 C 235.808594 172.601562 235.65625 171.523438 235.5 170.445312 C 235.332031 169.285156 235.320312 168.117188 235.15625 166.960938 C 235.089844 166.515625 234.363281 166.539062 234.28125 166.960938 " fill-opacity="1" fill-rule="nonzero"/></g><path fill="#832f1e" d="M 141.265625 167.203125 C 140.582031 166.941406 139.847656 167.597656 139.367188 168.023438 C 138.867188 168.46875 137.804688 169.183594 137.90625 169.949219 C 137.929688 170.109375 138.003906 170.269531 138.179688 170.308594 C 138.976562 170.480469 139.621094 169.570312 140.128906 169.082031 C 140.609375 168.625 141.359375 168.097656 141.40625 167.382812 C 141.410156 167.296875 141.34375 167.230469 141.265625 167.203125 " fill-opacity="1" fill-rule="nonzero"/><g clip-path="url(#d70675f8a5)"><path fill="#832f1e" d="M 137.894531 169.519531 C 136.988281 171.035156 136.917969 173.046875 136.867188 174.769531 C 136.808594 176.714844 137.054688 178.679688 137.175781 180.621094 C 137.4375 184.800781 137.230469 189.023438 137.125 193.207031 C 137.066406 195.390625 137.023438 197.574219 136.972656 199.757812 C 136.921875 201.953125 136.78125 204.144531 136.796875 206.34375 C 136.816406 209.652344 137.132812 212.980469 137.011719 216.28125 C 136.941406 218.246094 136.863281 220.210938 136.835938 222.179688 C 136.824219 223.074219 136.816406 223.96875 136.855469 224.863281 C 136.882812 225.480469 136.878906 226.335938 137.496094 226.691406 C 137.351562 226.507812 137.210938 226.324219 137.074219 226.144531 C 137.078125 226.191406 137.085938 226.238281 137.09375 226.285156 C 137.167969 226.808594 137.761719 226.976562 138.195312 226.910156 C 138.679688 226.839844 138.839844 226.507812 139.078125 226.128906 C 139.351562 225.695312 139.710938 225.308594 140.058594 224.9375 C 140.75 224.199219 141.617188 223.621094 142.324219 222.886719 C 142.898438 222.289062 141.992188 221.382812 141.414062 221.976562 C 140.195312 223.226562 138.734375 224.203125 137.5 225.429688 C 137.78125 225.355469 138.066406 225.28125 138.347656 225.207031 C 138.296875 225.199219 138.246094 225.191406 138.195312 225.183594 C 138.402344 225.550781 138.613281 225.917969 138.820312 226.285156 C 138.878906 225.894531 138.898438 225.5625 138.605469 225.25 C 138.671875 225.316406 138.8125 225.691406 138.75 225.433594 C 138.679688 225.148438 138.75 225.542969 138.722656 225.265625 C 138.699219 225.070312 138.691406 224.875 138.679688 224.679688 C 138.625 223.664062 138.644531 222.640625 138.664062 221.625 C 138.703125 219.644531 138.800781 217.667969 138.867188 215.6875 C 138.921875 214.082031 138.777344 212.453125 138.734375 210.84375 C 138.671875 208.640625 138.65625 206.433594 138.640625 204.226562 C 138.609375 199.855469 138.84375 195.480469 138.90625 191.105469 C 138.957031 187.382812 139.070312 183.640625 138.753906 179.929688 C 138.605469 178.210938 138.484375 176.492188 138.363281 174.769531 C 138.242188 173.054688 138.421875 171.355469 138.371094 169.648438 C 138.363281 169.394531 138.027344 169.296875 137.894531 169.519531 " fill-opacity="1" fill-rule="nonzero"/></g><path fill="#832f1e" d="M 137.789062 227.257812 C 139.511719 227.429688 141.335938 227.214844 143.058594 227.101562 C 144.820312 226.984375 146.578125 226.867188 148.339844 226.753906 C 151.867188 226.523438 155.394531 226.304688 158.921875 226.113281 C 162.445312 225.925781 165.976562 225.773438 169.503906 225.671875 C 173.015625 225.574219 176.550781 225.441406 180.054688 225.746094 C 180.625 225.792969 181.089844 225.128906 180.917969 224.605469 C 180.664062 223.820312 181 223.316406 181.4375 222.667969 C 181.703125 222.277344 181.183594 221.773438 180.796875 222.023438 C 179.863281 222.625 179.230469 223.742188 179.15625 224.847656 C 179.453125 224.546875 179.753906 224.246094 180.054688 223.945312 C 176.542969 224.179688 173.019531 224.132812 169.503906 224.246094 C 165.972656 224.359375 162.445312 224.535156 158.921875 224.742188 C 155.390625 224.945312 151.867188 225.1875 148.339844 225.433594 C 146.578125 225.558594 144.820312 225.679688 143.058594 225.804688 C 141.285156 225.929688 139.402344 225.960938 137.667969 226.363281 C 137.136719 226.488281 137.3125 227.207031 137.789062 227.257812 " fill-opacity="1" fill-rule="nonzero"/><g clip-path="url(#21297de9a2)"><path fill="#832f1e" d="M 179.519531 225.207031 C 180.113281 226.160156 181.460938 226.703125 182.441406 227.171875 C 183.757812 227.804688 185.1875 228.273438 186.609375 228.59375 C 188 228.90625 189.4375 228.96875 190.835938 228.671875 C 191.964844 228.429688 193.269531 227.601562 193.898438 226.621094 C 194.230469 226.097656 193.480469 225.546875 193.054688 225.96875 C 192.667969 226.351562 192.316406 226.683594 191.832031 226.941406 C 191.378906 227.179688 190.695312 227.222656 190.195312 227.269531 C 188.980469 227.382812 187.730469 227.164062 186.550781 226.898438 C 185.289062 226.613281 184.09375 226.15625 182.894531 225.6875 C 181.933594 225.3125 180.921875 224.648438 179.890625 224.5625 C 179.566406 224.535156 179.359375 224.949219 179.519531 225.207031 " fill-opacity="1" fill-rule="nonzero"/></g><path fill="#832f1e" d="M 194.351562 219.910156 C 194.195312 220.324219 194.152344 220.804688 194.070312 221.238281 C 193.972656 221.789062 193.820312 222.324219 193.667969 222.859375 C 193.359375 223.933594 193.015625 224.992188 192.804688 226.09375 C 192.738281 226.441406 192.898438 226.863281 193.289062 226.941406 C 193.347656 226.957031 193.410156 226.960938 193.472656 226.96875 C 193.753906 226.992188 194.089844 226.738281 194.140625 226.460938 C 194.332031 225.359375 194.632812 224.28125 194.871094 223.191406 C 195.089844 222.207031 195.464844 220.898438 195.128906 219.910156 C 194.996094 219.515625 194.492188 219.535156 194.351562 219.910156 " fill-opacity="1" fill-rule="nonzero"/><path fill="#832f1e" d="M 193.847656 226.167969 C 195.605469 226.5 197.433594 226.449219 199.214844 226.460938 C 201.15625 226.472656 203.097656 226.480469 205.039062 226.5 C 208.636719 226.53125 212.246094 226.523438 215.84375 226.636719 C 218.992188 226.730469 222.152344 226.941406 225.304688 226.796875 C 226.871094 226.722656 228.433594 226.558594 229.972656 226.277344 C 231.242188 226.046875 233.074219 225.800781 233.933594 224.746094 C 234.222656 224.394531 234.03125 223.933594 233.578125 223.886719 C 232.929688 223.824219 232.332031 224.019531 231.707031 224.195312 C 230.992188 224.398438 230.265625 224.554688 229.535156 224.683594 C 227.996094 224.953125 226.429688 225.03125 224.871094 225.082031 C 221.792969 225.179688 218.71875 225.015625 215.640625 224.933594 C 212.105469 224.839844 208.570312 225.003906 205.039062 225.117188 C 203.1875 225.175781 201.332031 225.226562 199.480469 225.273438 C 197.609375 225.320312 195.691406 225.28125 193.847656 225.628906 C 193.582031 225.679688 193.578125 226.117188 193.847656 226.167969 " fill-opacity="1" fill-rule="nonzero"/><path fill="#832f1e" d="M 235.730469 219.546875 C 234.035156 219.8125 232.96875 222.464844 232.710938 223.929688 C 232.636719 224.359375 232.753906 224.78125 233.152344 225.015625 C 233.5625 225.253906 234.261719 225.152344 234.46875 224.667969 C 234.808594 223.878906 234.988281 223.027344 235.296875 222.222656 C 235.578125 221.496094 236.089844 220.882812 236.328125 220.144531 C 236.453125 219.757812 236.070312 219.496094 235.730469 219.546875 " fill-opacity="1" fill-rule="nonzero"/><g fill="#832f1e" fill-opacity="1"><g transform="translate(120.049603, 149.69766)"><g><path d="M 4.515625 -15.765625 C 5.804688 -14.878906 6.566406 -13.765625 6.796875 -12.421875 C 7.023438 -11.078125 6.679688 -9.738281 5.765625 -8.40625 L 1.109375 -1.625 L -13.921875 -11.9375 L -9.734375 -18.03125 C -9.265625 -18.71875 -8.757812 -19.269531 -8.21875 -19.6875 C -7.675781 -20.101562 -7.171875 -20.378906 -6.703125 -20.515625 C -6.234375 -20.660156 -5.75 -20.71875 -5.25 -20.6875 C -4.75 -20.664062 -4.3125 -20.578125 -3.9375 -20.421875 C -3.5625 -20.273438 -3.207031 -20.085938 -2.875 -19.859375 C -1.34375 -18.804688 -0.726562 -17.375 -1.03125 -15.5625 C 0 -16.25 0.953125 -16.609375 1.828125 -16.640625 C 2.710938 -16.679688 3.609375 -16.390625 4.515625 -15.765625 Z M -3.90625 -17.765625 C -4.382812 -18.085938 -4.835938 -18.28125 -5.265625 -18.34375 C -5.691406 -18.414062 -6.085938 -18.363281 -6.453125 -18.1875 C -6.828125 -18.007812 -7.164062 -17.773438 -7.46875 -17.484375 C -7.769531 -17.191406 -8.066406 -16.832031 -8.359375 -16.40625 L -10.90625 -12.703125 L -6.109375 -9.421875 L -3.5625 -13.125 C -2.90625 -14.09375 -2.582031 -14.960938 -2.59375 -15.734375 C -2.613281 -16.503906 -3.050781 -17.179688 -3.90625 -17.765625 Z M 3.9375 -9.390625 C 4.289062 -9.910156 4.515625 -10.410156 4.609375 -10.890625 C 4.703125 -11.367188 4.675781 -11.796875 4.53125 -12.171875 C 4.382812 -12.546875 4.203125 -12.867188 3.984375 -13.140625 C 3.773438 -13.410156 3.523438 -13.644531 3.234375 -13.84375 C 2.441406 -14.382812 1.644531 -14.582031 0.84375 -14.4375 C 0.0507812 -14.300781 -0.640625 -13.796875 -1.234375 -12.921875 L -4.4375 -8.265625 L 0.734375 -4.734375 Z M 3.9375 -9.390625 "/></g></g></g><g fill="#832f1e" fill-opacity="1"><g transform="translate(131.202438, 134.56422)"><g><path d="M -9.5 -16.3125 L 3.421875 -3.4375 L 1.765625 -1.765625 L -11.15625 -14.640625 Z M -9.5 -16.3125 "/></g></g></g><g fill="#832f1e" fill-opacity="1"><g transform="translate(137.486589, 127.908646)"><g><path d="M 9.84375 -13.109375 C 10.738281 -11.828125 11.050781 -10.515625 10.78125 -9.171875 C 10.519531 -7.835938 9.71875 -6.710938 8.375 -5.796875 L 1.625 -1.125 L -8.75 -16.125 L -2.671875 -20.328125 C -1.984375 -20.796875 -1.3125 -21.128906 -0.65625 -21.328125 C -0.0078125 -21.523438 0.554688 -21.601562 1.046875 -21.5625 C 1.546875 -21.53125 2.023438 -21.410156 2.484375 -21.203125 C 2.941406 -20.992188 3.316406 -20.753906 3.609375 -20.484375 C 3.910156 -20.210938 4.175781 -19.910156 4.40625 -19.578125 C 5.457031 -18.046875 5.519531 -16.488281 4.59375 -14.90625 C 5.800781 -15.175781 6.820312 -15.171875 7.65625 -14.890625 C 8.488281 -14.609375 9.21875 -14.015625 9.84375 -13.109375 Z M 2.6875 -17.984375 C 2.363281 -18.460938 2.007812 -18.804688 1.625 -19.015625 C 1.25 -19.234375 0.859375 -19.328125 0.453125 -19.296875 C 0.046875 -19.265625 -0.347656 -19.164062 -0.734375 -19 C -1.117188 -18.832031 -1.523438 -18.601562 -1.953125 -18.3125 L -5.65625 -15.75 L -2.34375 -10.96875 L 1.359375 -13.53125 C 2.316406 -14.1875 2.925781 -14.878906 3.1875 -15.609375 C 3.445312 -16.335938 3.28125 -17.128906 2.6875 -17.984375 Z M 7.03125 -7.375 C 7.539062 -7.726562 7.925781 -8.113281 8.1875 -8.53125 C 8.445312 -8.945312 8.578125 -9.351562 8.578125 -9.75 C 8.578125 -10.15625 8.523438 -10.519531 8.421875 -10.84375 C 8.316406 -11.175781 8.164062 -11.488281 7.96875 -11.78125 C 7.414062 -12.570312 6.742188 -13.039062 5.953125 -13.1875 C 5.171875 -13.34375 4.34375 -13.117188 3.46875 -12.515625 L -1.1875 -9.296875 L 2.375 -4.15625 Z M 7.03125 -7.375 "/></g></g></g><g fill="#832f1e" fill-opacity="1"><g transform="translate(152.862379, 117.710004)"><g><path d="M -2.78125 -18.53125 L 3.25 -3.515625 L 11.59375 -6.875 L 12.359375 -4.96875 L 1.859375 -0.75 L -4.9375 -17.671875 Z M -2.78125 -18.53125 "/></g></g></g><g fill="#832f1e" fill-opacity="1"><g transform="translate(168.052718, 112.123042)"><g><path d="M 0.828125 -18.84375 L 4.734375 -1.03125 L 2.4375 -0.53125 L -1.46875 -18.34375 Z M 0.828125 -18.84375 "/></g></g></g><g fill="#832f1e" fill-opacity="1"><g transform="translate(176.777041, 109.7845)"><g><path d="M 18.40625 -9.15625 C 18.425781 -7.84375 18.238281 -6.609375 17.84375 -5.453125 C 17.445312 -4.304688 16.882812 -3.300781 16.15625 -2.4375 C 15.425781 -1.582031 14.507812 -0.898438 13.40625 -0.390625 C 12.3125 0.109375 11.097656 0.367188 9.765625 0.390625 C 7.140625 0.441406 5 -0.390625 3.34375 -2.109375 C 1.6875 -3.835938 0.832031 -6.128906 0.78125 -8.984375 C 0.726562 -11.828125 1.5 -14.144531 3.09375 -15.9375 C 4.695312 -17.726562 6.804688 -18.648438 9.421875 -18.703125 C 12.085938 -18.742188 14.238281 -17.894531 15.875 -16.15625 C 17.507812 -14.425781 18.351562 -12.09375 18.40625 -9.15625 Z M 9.453125 -16.640625 C 7.515625 -16.609375 5.960938 -15.894531 4.796875 -14.5 C 3.628906 -13.101562 3.066406 -11.28125 3.109375 -9.03125 C 3.148438 -6.78125 3.773438 -4.976562 4.984375 -3.625 C 6.191406 -2.269531 7.769531 -1.609375 9.71875 -1.640625 C 11.644531 -1.671875 13.195312 -2.378906 14.375 -3.765625 C 15.550781 -5.148438 16.117188 -6.941406 16.078125 -9.140625 C 16.035156 -11.441406 15.410156 -13.273438 14.203125 -14.640625 C 13.003906 -16.003906 11.421875 -16.671875 9.453125 -16.640625 Z M 9.453125 -16.640625 "/></g></g></g><g fill="#832f1e" fill-opacity="1"><g transform="translate(197.780651, 109.87339)"><g><path d="M 12.28125 -13.734375 L 8.609375 2.015625 L 6.359375 1.484375 L 10.03125 -14.265625 L 4.1875 -15.625 L 4.671875 -17.625 L 18.59375 -14.375 L 18.109375 -12.375 Z M 12.28125 -13.734375 "/></g></g></g><g fill="#832f1e" fill-opacity="1"><g transform="translate(214.307821, 113.859497)"><g><path d="M 7.78125 -5.421875 L 5.015625 0.1875 L 14.65625 4.96875 L 13.734375 6.8125 L 2.015625 1 L 10.109375 -15.34375 L 21.40625 -9.75 L 20.5 -7.890625 L 11.28125 -12.453125 L 8.6875 -7.234375 L 17.578125 -2.828125 L 16.671875 -1.015625 Z M 7.78125 -5.421875 "/></g></g></g><g fill="#832f1e" fill-opacity="1"><g transform="translate(230.621761, 122.070162)"><g><path d="M 6.6875 -6 C 7.0625 -6.4375 7.460938 -6.847656 7.890625 -7.234375 C 8.328125 -7.628906 8.820312 -8.015625 9.375 -8.390625 C 9.9375 -8.765625 10.503906 -9.078125 11.078125 -9.328125 C 11.660156 -9.578125 12.289062 -9.757812 12.96875 -9.875 C 13.644531 -9.988281 14.316406 -10.003906 14.984375 -9.921875 C 15.660156 -9.835938 16.367188 -9.628906 17.109375 -9.296875 C 17.847656 -8.972656 18.570312 -8.507812 19.28125 -7.90625 C 22.289062 -5.320312 22.78125 -2.28125 20.75 1.21875 L 18.9375 -0.34375 C 19.601562 -1.519531 19.84375 -2.601562 19.65625 -3.59375 C 19.476562 -4.59375 18.835938 -5.5625 17.734375 -6.5 C 16.398438 -7.644531 14.90625 -8.039062 13.25 -7.6875 C 11.59375 -7.332031 10.007812 -6.269531 8.5 -4.5 C 7.007812 -2.757812 6.234375 -1.03125 6.171875 0.6875 C 6.109375 2.40625 6.757812 3.847656 8.125 5.015625 C 9.269531 5.992188 10.421875 6.421875 11.578125 6.296875 C 12.742188 6.171875 14.007812 5.53125 15.375 4.375 L 17.203125 5.9375 C 13.640625 9.21875 10.175781 9.421875 6.8125 6.546875 C 6.007812 5.859375 5.367188 5.125 4.890625 4.34375 C 4.421875 3.5625 4.125 2.789062 4 2.03125 C 3.882812 1.269531 3.863281 0.515625 3.9375 -0.234375 C 4.019531 -0.984375 4.210938 -1.710938 4.515625 -2.421875 C 4.828125 -3.140625 5.160156 -3.789062 5.515625 -4.375 C 5.867188 -4.957031 6.257812 -5.5 6.6875 -6 Z M 6.6875 -6 "/></g></g></g><g fill="#832f1e" fill-opacity="1"><g transform="translate(245.366719, 134.922974)"><g><path d="M 14.6875 6.546875 L 9.328125 -1.140625 L 2.515625 3.609375 L 1.1875 1.6875 L 16.140625 -8.75 L 17.46875 -6.828125 L 11 -2.3125 L 16.359375 5.375 L 22.828125 0.859375 L 24.15625 2.765625 L 9.203125 13.203125 L 7.875 11.296875 Z M 14.6875 6.546875 "/></g></g></g><g fill="#832f1e" fill-opacity="1"><g transform="translate(114.49168, 248.008588)"><g><path d="M 3.875 2.953125 C 4.15625 3.253906 4.4375 3.492188 4.71875 3.671875 C 5 3.859375 5.242188 3.976562 5.453125 4.03125 C 5.671875 4.082031 5.878906 4.085938 6.078125 4.046875 C 6.285156 4.015625 6.457031 3.960938 6.59375 3.890625 C 6.738281 3.816406 6.867188 3.722656 6.984375 3.609375 C 7.285156 3.328125 7.425781 2.984375 7.40625 2.578125 C 7.394531 2.179688 7.234375 1.691406 6.921875 1.109375 L 5.703125 -1.21875 C 5.046875 -2.425781 5.171875 -3.453125 6.078125 -4.296875 C 6.753906 -4.929688 7.507812 -5.191406 8.34375 -5.078125 C 9.1875 -4.960938 9.988281 -4.5 10.75 -3.6875 C 11.539062 -2.820312 11.953125 -1.957031 11.984375 -1.09375 C 12.023438 -0.238281 11.679688 0.535156 10.953125 1.234375 L 10.109375 0.328125 C 10.597656 -0.140625 10.828125 -0.65625 10.796875 -1.21875 C 10.765625 -1.789062 10.472656 -2.375 9.921875 -2.96875 C 9.453125 -3.46875 8.957031 -3.765625 8.4375 -3.859375 C 7.925781 -3.953125 7.476562 -3.820312 7.09375 -3.46875 C 6.800781 -3.195312 6.65625 -2.894531 6.65625 -2.5625 C 6.664062 -2.226562 6.820312 -1.78125 7.125 -1.21875 L 8.359375 1.140625 C 8.691406 1.773438 8.828125 2.378906 8.765625 2.953125 C 8.703125 3.535156 8.4375 4.039062 7.96875 4.46875 C 7.769531 4.65625 7.546875 4.8125 7.296875 4.9375 C 7.054688 5.070312 6.765625 5.164062 6.421875 5.21875 C 6.085938 5.28125 5.742188 5.273438 5.390625 5.203125 C 5.035156 5.140625 4.644531 4.976562 4.21875 4.71875 C 3.800781 4.46875 3.382812 4.117188 2.96875 3.671875 C 2.707031 3.390625 2.476562 3.097656 2.28125 2.796875 C 2.082031 2.492188 1.921875 2.148438 1.796875 1.765625 C 1.671875 1.390625 1.613281 1.019531 1.625 0.65625 C 1.632812 0.289062 1.738281 -0.0976562 1.9375 -0.515625 C 2.132812 -0.929688 2.429688 -1.328125 2.828125 -1.703125 L 3.671875 -0.8125 L 3.625 -0.765625 C 3.414062 -0.578125 3.25 -0.359375 3.125 -0.109375 C 3 0.128906 2.914062 0.40625 2.875 0.71875 C 2.832031 1.03125 2.894531 1.378906 3.0625 1.765625 C 3.226562 2.148438 3.5 2.546875 3.875 2.953125 Z M 3.875 2.953125 "/></g></g></g><g fill="#832f1e" fill-opacity="1"><g transform="translate(122.861158, 256.639642)"><g><path d="M 8.8125 -5.859375 L 2.03125 1.796875 L 1.046875 0.9375 L 7.828125 -6.71875 Z M 8.8125 -5.859375 "/></g></g></g><g fill="#832f1e" fill-opacity="1"><g transform="translate(127.8004, 261.041093)"><g><path d="M 13.296875 -3.015625 L 7.34375 5.28125 L 6.15625 4.421875 L 6.671875 -5.375 L 1.859375 1.34375 L 0.859375 0.625 L 6.8125 -7.671875 L 7.96875 -6.84375 L 7.421875 3.046875 L 12.296875 -3.734375 Z M 13.296875 -3.015625 "/></g></g></g><g fill="#832f1e" fill-opacity="1"><g transform="translate(138.476962, 268.461021)"><g><path d="M 2.921875 -4.09375 C 3.066406 -4.382812 3.234375 -4.660156 3.421875 -4.921875 C 3.609375 -5.179688 3.832031 -5.445312 4.09375 -5.71875 C 4.351562 -5.988281 4.625 -6.226562 4.90625 -6.4375 C 5.195312 -6.65625 5.519531 -6.835938 5.875 -6.984375 C 6.226562 -7.128906 6.59375 -7.222656 6.96875 -7.265625 C 7.351562 -7.304688 7.765625 -7.28125 8.203125 -7.1875 C 8.648438 -7.09375 9.101562 -6.925781 9.5625 -6.6875 C 11.53125 -5.644531 12.164062 -4.046875 11.46875 -1.890625 L 10.296875 -2.515625 C 10.515625 -3.234375 10.507812 -3.851562 10.28125 -4.375 C 10.0625 -4.90625 9.597656 -5.359375 8.890625 -5.734375 C 8.015625 -6.191406 7.144531 -6.222656 6.28125 -5.828125 C 5.414062 -5.429688 4.675781 -4.65625 4.0625 -3.5 C 3.46875 -2.363281 3.257812 -1.320312 3.4375 -0.375 C 3.625 0.5625 4.164062 1.265625 5.0625 1.734375 C 5.8125 2.128906 6.492188 2.222656 7.109375 2.015625 C 7.722656 1.804688 8.332031 1.304688 8.9375 0.515625 L 10.125 1.140625 C 8.582031 3.367188 6.71875 3.90625 4.53125 2.75 C 4 2.46875 3.554688 2.140625 3.203125 1.765625 C 2.847656 1.398438 2.59375 1.015625 2.4375 0.609375 C 2.28125 0.210938 2.175781 -0.191406 2.125 -0.609375 C 2.082031 -1.035156 2.097656 -1.460938 2.171875 -1.890625 C 2.253906 -2.316406 2.351562 -2.707031 2.46875 -3.0625 C 2.59375 -3.414062 2.742188 -3.757812 2.921875 -4.09375 Z M 2.921875 -4.09375 "/></g></g></g><g fill="#832f1e" fill-opacity="1"><g transform="translate(150.052713, 274.328251)"><g><path d="M 4.015625 -3.484375 L 2.8125 -0.1875 L 8.46875 1.890625 L 8.0625 2.96875 L 1.1875 0.4375 L 4.71875 -9.15625 L 11.34375 -6.71875 L 10.9375 -5.609375 L 5.53125 -7.59375 L 4.40625 -4.546875 L 9.625 -2.625 L 9.234375 -1.5625 Z M 4.015625 -3.484375 "/></g></g></g><g fill="#832f1e" fill-opacity="1"><g transform="translate(161.423132, 278.235744)"><g/></g></g><g fill="#832f1e" fill-opacity="1"><g transform="translate(167.763941, 279.856161)"><g><path d="M 1.75 -6.28125 C 2.195312 -8.539062 3.46875 -9.492188 5.5625 -9.140625 C 6.476562 -8.984375 7.179688 -8.59375 7.671875 -7.96875 C 8.171875 -7.34375 8.347656 -6.601562 8.203125 -5.75 C 8.003906 -4.53125 7.15625 -3.65625 5.65625 -3.125 L 4.140625 -2.609375 C 3.492188 -2.398438 3.007812 -2.160156 2.6875 -1.890625 C 2.375 -1.617188 2.15625 -1.285156 2.03125 -0.890625 L 7.1875 -0.03125 L 6.984375 1.171875 L 0.46875 0.078125 C 0.707031 -0.992188 1.0625 -1.789062 1.53125 -2.3125 C 2.007812 -2.832031 2.804688 -3.296875 3.921875 -3.703125 L 5.328125 -4.21875 C 6.285156 -4.5625 6.832031 -5.128906 6.96875 -5.921875 C 7.050781 -6.441406 6.9375 -6.90625 6.625 -7.3125 C 6.320312 -7.726562 5.894531 -7.976562 5.34375 -8.0625 C 5.019531 -8.125 4.726562 -8.125 4.46875 -8.0625 C 4.207031 -8 3.992188 -7.898438 3.828125 -7.765625 C 3.671875 -7.640625 3.53125 -7.46875 3.40625 -7.25 C 3.28125 -7.039062 3.1875 -6.847656 3.125 -6.671875 C 3.070312 -6.492188 3.015625 -6.296875 2.953125 -6.078125 Z M 1.75 -6.28125 "/></g></g></g><g fill="#832f1e" fill-opacity="1"><g transform="translate(178.184468, 281.443733)"><g><path d="M 0.859375 -4.765625 C 0.898438 -5.585938 1.007812 -6.3125 1.1875 -6.9375 C 1.363281 -7.5625 1.566406 -8.046875 1.796875 -8.390625 C 2.035156 -8.742188 2.3125 -9.023438 2.625 -9.234375 C 2.9375 -9.453125 3.234375 -9.585938 3.515625 -9.640625 C 3.796875 -9.703125 4.085938 -9.726562 4.390625 -9.71875 C 4.867188 -9.6875 5.285156 -9.566406 5.640625 -9.359375 C 6.003906 -9.160156 6.300781 -8.898438 6.53125 -8.578125 C 6.757812 -8.265625 6.9375 -7.878906 7.0625 -7.421875 C 7.195312 -6.960938 7.285156 -6.476562 7.328125 -5.96875 C 7.367188 -5.457031 7.375 -4.910156 7.34375 -4.328125 C 7.25 -2.691406 6.898438 -1.457031 6.296875 -0.625 C 5.691406 0.195312 4.867188 0.578125 3.828125 0.515625 C 2.765625 0.460938 1.976562 -0.0078125 1.46875 -0.90625 C 0.96875 -1.800781 0.765625 -3.085938 0.859375 -4.765625 Z M 4.328125 -8.609375 C 3.003906 -8.671875 2.269531 -7.363281 2.125 -4.6875 C 1.96875 -1.957031 2.546875 -0.5625 3.859375 -0.5 C 4.546875 -0.457031 5.070312 -0.765625 5.4375 -1.421875 C 5.800781 -2.078125 6.019531 -3.113281 6.09375 -4.53125 C 6.238281 -7.175781 5.648438 -8.535156 4.328125 -8.609375 Z M 4.328125 -8.609375 "/></g></g></g><g fill="#832f1e" fill-opacity="1"><g transform="translate(188.716724, 281.86712)"><g><path d="M 0.34375 -6.515625 C 0.269531 -8.816406 1.289062 -10.023438 3.40625 -10.140625 C 4.332031 -10.191406 5.101562 -9.960938 5.71875 -9.453125 C 6.34375 -8.953125 6.679688 -8.269531 6.734375 -7.40625 C 6.796875 -6.175781 6.160156 -5.140625 4.828125 -4.296875 L 3.46875 -3.46875 C 2.882812 -3.113281 2.46875 -2.769531 2.21875 -2.4375 C 1.96875 -2.113281 1.828125 -1.742188 1.796875 -1.328125 L 7 -1.609375 L 7.0625 -0.390625 L 0.46875 -0.03125 C 0.46875 -1.125 0.644531 -1.976562 1 -2.59375 C 1.351562 -3.207031 2.03125 -3.835938 3.03125 -4.484375 L 4.28125 -5.265625 C 5.125 -5.816406 5.523438 -6.492188 5.484375 -7.296875 C 5.453125 -7.828125 5.242188 -8.257812 4.859375 -8.59375 C 4.472656 -8.925781 4 -9.078125 3.4375 -9.046875 C 3.113281 -9.023438 2.828125 -8.957031 2.578125 -8.84375 C 2.335938 -8.726562 2.15625 -8.585938 2.03125 -8.421875 C 1.90625 -8.253906 1.804688 -8.050781 1.734375 -7.8125 C 1.660156 -7.570312 1.613281 -7.363281 1.59375 -7.1875 C 1.570312 -7.007812 1.5625 -6.804688 1.5625 -6.578125 Z M 0.34375 -6.515625 "/></g></g></g><g fill="#832f1e" fill-opacity="1"><g transform="translate(199.231059, 281.121068)"><g><path d="M 4.921875 -10.90625 L 5.125 -9.703125 L 1.046875 -9.015625 L 1.125 -6.21875 C 1.582031 -6.6875 2.144531 -6.976562 2.8125 -7.09375 C 3.757812 -7.257812 4.578125 -7.09375 5.265625 -6.59375 C 5.960938 -6.09375 6.394531 -5.359375 6.5625 -4.390625 C 6.726562 -3.359375 6.550781 -2.460938 6.03125 -1.703125 C 5.507812 -0.941406 4.757812 -0.476562 3.78125 -0.3125 C 3.476562 -0.257812 3.191406 -0.238281 2.921875 -0.25 C 2.660156 -0.257812 2.425781 -0.285156 2.21875 -0.328125 C 2.007812 -0.367188 1.8125 -0.4375 1.625 -0.53125 C 1.445312 -0.632812 1.296875 -0.726562 1.171875 -0.8125 C 1.054688 -0.894531 0.929688 -1.015625 0.796875 -1.171875 C 0.671875 -1.328125 0.578125 -1.445312 0.515625 -1.53125 C 0.453125 -1.625 0.382812 -1.75 0.3125 -1.90625 C 0.238281 -2.070312 0.191406 -2.175781 0.171875 -2.21875 C 0.148438 -2.257812 0.117188 -2.347656 0.078125 -2.484375 L 1.28125 -2.6875 C 1.757812 -1.632812 2.523438 -1.195312 3.578125 -1.375 C 4.242188 -1.488281 4.734375 -1.78125 5.046875 -2.25 C 5.359375 -2.71875 5.453125 -3.300781 5.328125 -4 C 5.210938 -4.726562 4.925781 -5.269531 4.46875 -5.625 C 4.007812 -5.988281 3.453125 -6.113281 2.796875 -6 C 2.410156 -5.9375 2.09375 -5.8125 1.84375 -5.625 C 1.601562 -5.4375 1.367188 -5.148438 1.140625 -4.765625 L 0.03125 -4.578125 L -0.125 -10.046875 Z M 4.921875 -10.90625 "/></g></g></g><g fill="#832f1e" fill-opacity="1"><g transform="translate(209.474808, 279.182558)"><g/></g></g><g fill="#832f1e" fill-opacity="1"><g transform="translate(215.671904, 277.467052)"><g><path d="M -0.671875 -10.546875 L 2.578125 -0.859375 L 1.328125 -0.453125 L -1.921875 -10.140625 Z M -0.671875 -10.546875 "/></g></g></g><g fill="#832f1e" fill-opacity="1"><g transform="translate(221.94876, 275.376648)"><g><path d="M 4 -13.046875 L 8.234375 -3.75 L 6.890625 -3.140625 L -1.328125 -8.484375 L 2.09375 -0.953125 L 0.96875 -0.4375 L -3.265625 -9.734375 L -1.96875 -10.328125 L 6.34375 -4.921875 L 2.875 -12.53125 Z M 4 -13.046875 "/></g></g></g><g fill="#832f1e" fill-opacity="1"><g transform="translate(233.48718, 269.803303)"><g/></g></g><g fill="#832f1e" fill-opacity="1"><g transform="translate(239.208309, 266.481022)"><g><path d="M -2.390625 -4.40625 C -2.585938 -4.675781 -2.765625 -4.953125 -2.921875 -5.234375 C -3.078125 -5.523438 -3.21875 -5.84375 -3.34375 -6.1875 C -3.476562 -6.53125 -3.578125 -6.878906 -3.640625 -7.234375 C -3.710938 -7.585938 -3.734375 -7.957031 -3.703125 -8.34375 C -3.679688 -8.726562 -3.601562 -9.097656 -3.46875 -9.453125 C -3.34375 -9.816406 -3.140625 -10.175781 -2.859375 -10.53125 C -2.578125 -10.882812 -2.234375 -11.210938 -1.828125 -11.515625 C -0.0234375 -12.835938 1.691406 -12.710938 3.328125 -11.140625 L 2.25 -10.359375 C 1.695312 -10.878906 1.132812 -11.148438 0.5625 -11.171875 C 0 -11.191406 -0.601562 -10.96875 -1.25 -10.5 C -2.050781 -9.914062 -2.460938 -9.148438 -2.484375 -8.203125 C -2.503906 -7.253906 -2.128906 -6.25 -1.359375 -5.1875 C -0.597656 -4.15625 0.242188 -3.515625 1.171875 -3.265625 C 2.097656 -3.015625 2.96875 -3.191406 3.78125 -3.796875 C 4.457031 -4.285156 4.835938 -4.851562 4.921875 -5.5 C 5.003906 -6.144531 4.828125 -6.914062 4.390625 -7.8125 L 5.46875 -8.59375 C 6.789062 -6.238281 6.453125 -4.332031 4.453125 -2.875 C 3.972656 -2.519531 3.488281 -2.265625 3 -2.109375 C 2.519531 -1.953125 2.0625 -1.890625 1.625 -1.921875 C 1.195312 -1.953125 0.78125 -2.039062 0.375 -2.1875 C -0.0195312 -2.332031 -0.390625 -2.53125 -0.734375 -2.78125 C -1.085938 -3.03125 -1.394531 -3.285156 -1.65625 -3.546875 C -1.925781 -3.816406 -2.171875 -4.101562 -2.390625 -4.40625 Z M -2.390625 -4.40625 "/></g></g></g><g fill="#832f1e" fill-opacity="1"><g transform="translate(249.52473, 258.647286)"><g><path d="M -2.640625 -9.96875 L 3.59375 -3.40625 L 2.65625 -2.515625 L -3.578125 -9.078125 L -6.015625 -6.765625 L -6.8125 -7.609375 L -1 -13.125 L -0.203125 -12.28125 Z M -2.640625 -9.96875 "/></g></g></g><g fill="#832f1e" fill-opacity="1"><g transform="translate(257.49542, 250.756581)"><g><path d="M -5.921875 -8.765625 L 1.78125 -2.046875 L 0.921875 -1.0625 L -6.78125 -7.78125 Z M -5.921875 -8.765625 "/></g></g></g></svg>