<svg xmlns="http://www.w3.org/2000/svg" xmlns:xlink="http://www.w3.org/1999/xlink" width="500" zoomAndPan="magnify" viewBox="0 0 375 374.999991" height="500" preserveAspectRatio="xMidYMid meet" version="1.0"><defs><g/></defs><g fill="#832f1e" fill-opacity="1"><g transform="translate(52.256365, 190.142976)"><g><path d="M 30.65625 -24 C 33.050781 -23.90625 35.210938 -23.300781 37.140625 -22.1875 C 39.066406 -21.082031 40.609375 -19.644531 41.765625 -17.875 C 42.921875 -16.101562 43.5 -14.132812 43.5 -11.96875 C 43.5 -9.738281 42.882812 -7.726562 41.65625 -5.9375 C 40.4375 -4.15625 38.804688 -2.71875 36.765625 -1.625 C 34.734375 -0.539062 32.46875 0 29.96875 0 L 2.046875 0 L 2.046875 -0.40625 C 3.171875 -0.40625 4.128906 -0.800781 4.921875 -1.59375 C 5.722656 -2.382812 6.125 -3.347656 6.125 -4.484375 L 6.125 -43.09375 C 6.125 -44.226562 5.722656 -45.191406 4.921875 -45.984375 C 4.128906 -46.773438 3.171875 -47.171875 2.046875 -47.171875 L 2.046875 -47.578125 L 27.59375 -47.578125 C 29.8125 -47.578125 31.816406 -47.03125 33.609375 -45.9375 C 35.398438 -44.851562 36.828125 -43.40625 37.890625 -41.59375 C 38.953125 -39.78125 39.484375 -37.765625 39.484375 -35.546875 C 39.484375 -32.785156 38.644531 -30.335938 36.96875 -28.203125 C 35.289062 -26.078125 33.1875 -24.675781 30.65625 -24 Z M 18.078125 -47.171875 L 18.078125 -24 L 20.59375 -24 C 21.863281 -24 23.019531 -24.519531 24.0625 -25.5625 C 25.101562 -26.601562 25.925781 -27.992188 26.53125 -29.734375 C 27.144531 -31.484375 27.453125 -33.421875 27.453125 -35.546875 C 27.453125 -37.722656 27.144531 -39.679688 26.53125 -41.421875 C 25.925781 -43.171875 25.101562 -44.566406 24.0625 -45.609375 C 23.019531 -46.648438 21.863281 -47.171875 20.59375 -47.171875 Z M 21.953125 -0.40625 C 23.398438 -0.40625 24.722656 -0.925781 25.921875 -1.96875 C 27.128906 -3.007812 28.082031 -4.414062 28.78125 -6.1875 C 29.488281 -7.957031 29.84375 -9.90625 29.84375 -12.03125 C 29.84375 -14.15625 29.488281 -16.085938 28.78125 -17.828125 C 28.082031 -19.578125 27.128906 -20.972656 25.921875 -22.015625 C 24.722656 -23.054688 23.398438 -23.578125 21.953125 -23.578125 L 18.078125 -23.578125 L 18.078125 -0.40625 Z M 21.953125 -0.40625 "/></g></g></g><g fill="#832f1e" fill-opacity="1"><g transform="translate(94.592876, 190.142976)"><g><path d="M 4.484375 -3.734375 L 4.484375 -27.9375 C 4.484375 -28.800781 4.210938 -29.535156 3.671875 -30.140625 C 3.128906 -30.753906 2.472656 -31.128906 1.703125 -31.265625 L 1.703125 -31.671875 L 13.328125 -33.375 C 13.367188 -33.375 13.398438 -33.375 13.421875 -33.375 C 13.441406 -33.375 13.476562 -33.375 13.53125 -33.375 C 14.300781 -33.375 14.6875 -32.988281 14.6875 -32.21875 L 14.6875 -3.734375 C 14.6875 -2.921875 14.957031 -2.195312 15.5 -1.5625 C 16.039062 -0.925781 16.695312 -0.539062 17.46875 -0.40625 L 17.46875 0 L 1.703125 0 L 1.703125 -0.40625 C 2.472656 -0.539062 3.128906 -0.925781 3.671875 -1.5625 C 4.210938 -2.195312 4.484375 -2.921875 4.484375 -3.734375 Z M 14.890625 -42.28125 C 14.890625 -40.875 14.367188 -39.648438 13.328125 -38.609375 C 12.285156 -37.566406 11.035156 -37.046875 9.578125 -37.046875 C 8.128906 -37.046875 6.894531 -37.566406 5.875 -38.609375 C 4.851562 -39.648438 4.34375 -40.875 4.34375 -42.28125 C 4.34375 -43.726562 4.851562 -44.972656 5.875 -46.015625 C 6.894531 -47.054688 8.128906 -47.578125 9.578125 -47.578125 C 11.035156 -47.578125 12.285156 -47.054688 13.328125 -46.015625 C 14.367188 -44.972656 14.890625 -43.726562 14.890625 -42.28125 Z M 14.890625 -42.28125 "/></g></g></g><g fill="#832f1e" fill-opacity="1"><g transform="translate(109.882501, 190.142976)"><g><path d="M 35.140625 -18.21875 C 35.453125 -15.09375 35.132812 -12.171875 34.1875 -9.453125 C 33.238281 -6.734375 31.820312 -4.5 29.9375 -2.75 C 28.0625 -1.007812 25.875 -0.00390625 23.375 0.265625 C 21.84375 0.453125 20.335938 0.285156 18.859375 -0.234375 C 17.390625 -0.753906 16 -1.515625 14.6875 -2.515625 L 14.6875 -1.421875 C 14.6875 -1.015625 14.546875 -0.675781 14.265625 -0.40625 C 13.992188 -0.132812 13.65625 0 13.25 0 L 1.703125 0 L 1.703125 -0.40625 C 2.472656 -0.539062 3.128906 -0.925781 3.671875 -1.5625 C 4.210938 -2.195312 4.484375 -2.921875 4.484375 -3.734375 L 4.484375 -42.140625 C 4.484375 -42.953125 4.210938 -43.675781 3.671875 -44.3125 C 3.128906 -44.945312 2.472656 -45.332031 1.703125 -45.46875 L 1.703125 -45.875 L 13.328125 -47.578125 C 13.367188 -47.578125 13.398438 -47.578125 13.421875 -47.578125 C 13.441406 -47.578125 13.476562 -47.578125 13.53125 -47.578125 C 14.300781 -47.578125 14.6875 -47.171875 14.6875 -46.359375 L 14.6875 -32.625 C 16.132812 -33.394531 17.765625 -33.867188 19.578125 -34.046875 C 22.066406 -34.316406 24.441406 -33.769531 26.703125 -32.40625 C 28.972656 -31.050781 30.867188 -29.140625 32.390625 -26.671875 C 33.910156 -24.203125 34.828125 -21.382812 35.140625 -18.21875 Z M 17 -2.515625 C 18.488281 -2.515625 19.84375 -3.191406 21.0625 -4.546875 C 22.289062 -5.910156 23.265625 -7.734375 23.984375 -10.015625 C 24.710938 -12.304688 25.078125 -14.835938 25.078125 -17.609375 C 25.078125 -20.410156 24.710938 -22.941406 23.984375 -25.203125 C 23.265625 -27.472656 22.289062 -29.285156 21.0625 -30.640625 C 19.84375 -32.003906 18.488281 -32.6875 17 -32.6875 C 16.269531 -32.6875 15.5 -32.507812 14.6875 -32.15625 L 14.6875 -3.0625 C 15.5 -2.695312 16.269531 -2.515625 17 -2.515625 Z M 17 -2.515625 "/></g></g></g><g fill="#832f1e" fill-opacity="1"><g transform="translate(143.656429, 190.142976)"><g><path d="M 14.6875 -46.359375 L 14.6875 -3.734375 C 14.6875 -2.921875 14.957031 -2.195312 15.5 -1.5625 C 16.039062 -0.925781 16.695312 -0.539062 17.46875 -0.40625 L 17.46875 0 L 1.703125 0 L 1.703125 -0.40625 C 2.472656 -0.539062 3.128906 -0.925781 3.671875 -1.5625 C 4.210938 -2.195312 4.484375 -2.921875 4.484375 -3.734375 L 4.484375 -42.140625 C 4.484375 -42.953125 4.210938 -43.675781 3.671875 -44.3125 C 3.128906 -44.945312 2.472656 -45.332031 1.703125 -45.46875 L 1.703125 -45.875 L 13.328125 -47.578125 C 13.367188 -47.578125 13.398438 -47.578125 13.421875 -47.578125 C 13.441406 -47.578125 13.476562 -47.578125 13.53125 -47.578125 C 14.300781 -47.578125 14.6875 -47.171875 14.6875 -46.359375 Z M 14.6875 -46.359375 "/></g></g></g><g fill="#832f1e" fill-opacity="1"><g transform="translate(158.946054, 190.142976)"><g><path d="M 4.484375 -3.734375 L 4.484375 -27.9375 C 4.484375 -28.800781 4.210938 -29.535156 3.671875 -30.140625 C 3.128906 -30.753906 2.472656 -31.128906 1.703125 -31.265625 L 1.703125 -31.671875 L 13.328125 -33.375 C 13.367188 -33.375 13.398438 -33.375 13.421875 -33.375 C 13.441406 -33.375 13.476562 -33.375 13.53125 -33.375 C 14.300781 -33.375 14.6875 -32.988281 14.6875 -32.21875 L 14.6875 -3.734375 C 14.6875 -2.921875 14.957031 -2.195312 15.5 -1.5625 C 16.039062 -0.925781 16.695312 -0.539062 17.46875 -0.40625 L 17.46875 0 L 1.703125 0 L 1.703125 -0.40625 C 2.472656 -0.539062 3.128906 -0.925781 3.671875 -1.5625 C 4.210938 -2.195312 4.484375 -2.921875 4.484375 -3.734375 Z M 14.890625 -42.28125 C 14.890625 -40.875 14.367188 -39.648438 13.328125 -38.609375 C 12.285156 -37.566406 11.035156 -37.046875 9.578125 -37.046875 C 8.128906 -37.046875 6.894531 -37.566406 5.875 -38.609375 C 4.851562 -39.648438 4.34375 -40.875 4.34375 -42.28125 C 4.34375 -43.726562 4.851562 -44.972656 5.875 -46.015625 C 6.894531 -47.054688 8.128906 -47.578125 9.578125 -47.578125 C 11.035156 -47.578125 12.285156 -47.054688 13.328125 -46.015625 C 14.367188 -44.972656 14.890625 -43.726562 14.890625 -42.28125 Z M 14.890625 -42.28125 "/></g></g></g><g fill="#832f1e" fill-opacity="1"><g transform="translate(174.23568, 190.142976)"><g><path d="M 17.875 -34.046875 C 20.726562 -34.046875 23.320312 -33.273438 25.65625 -31.734375 C 27.988281 -30.203125 29.859375 -28.128906 31.265625 -25.515625 C 32.671875 -22.910156 33.375 -20.023438 33.375 -16.859375 C 33.375 -13.679688 32.671875 -10.789062 31.265625 -8.1875 C 29.859375 -5.582031 27.988281 -3.507812 25.65625 -1.96875 C 23.320312 -0.425781 20.726562 0.34375 17.875 0.34375 C 15.019531 0.34375 12.425781 -0.425781 10.09375 -1.96875 C 7.757812 -3.507812 5.890625 -5.582031 4.484375 -8.1875 C 3.078125 -10.789062 2.375 -13.679688 2.375 -16.859375 C 2.375 -20.023438 3.078125 -22.910156 4.484375 -25.515625 C 5.890625 -28.128906 7.757812 -30.203125 10.09375 -31.734375 C 12.425781 -33.273438 15.019531 -34.046875 17.875 -34.046875 Z M 17.875 -0.0625 C 21.363281 -0.0625 23.109375 -5.660156 23.109375 -16.859375 C 23.109375 -28.046875 21.363281 -33.640625 17.875 -33.640625 C 14.34375 -33.640625 12.578125 -28.046875 12.578125 -16.859375 C 12.578125 -5.660156 14.34375 -0.0625 17.875 -0.0625 Z M 17.875 -0.0625 "/></g></g></g><g fill="#832f1e" fill-opacity="1"><g transform="translate(206.10681, 190.142976)"><g><path d="M 18.359375 -2.453125 C 19.117188 -2.453125 19.796875 -2.65625 20.390625 -3.0625 L 20.390625 -2.578125 C 19.578125 -1.992188 18.46875 -1.359375 17.0625 -0.671875 C 15.65625 0.00390625 14 0.34375 12.09375 0.34375 C 10.007812 0.34375 8.21875 -0.398438 6.71875 -1.890625 C 5.226562 -3.390625 4.484375 -5.179688 4.484375 -7.265625 L 4.484375 -32.96875 L 1.703125 -32.96875 L 1.703125 -33.375 C 4.234375 -33.375 6.597656 -33.925781 8.796875 -35.03125 C 10.992188 -36.144531 12.820312 -37.628906 14.28125 -39.484375 L 14.6875 -39.484375 L 14.6875 -33.375 L 19.09375 -33.375 L 19.09375 -32.96875 L 14.6875 -32.96875 L 14.6875 -6.125 C 14.6875 -5.125 15.046875 -4.257812 15.765625 -3.53125 C 16.492188 -2.8125 17.359375 -2.453125 18.359375 -2.453125 Z M 18.359375 -2.453125 "/></g></g></g><g fill="#832f1e" fill-opacity="1"><g transform="translate(223.639021, 190.142976)"><g><path d="M 23.65625 -4.34375 C 24.96875 -4.34375 26.222656 -4.660156 27.421875 -5.296875 C 28.628906 -5.929688 29.707031 -6.816406 30.65625 -7.953125 L 31 -7.75 C 29.632812 -5.300781 27.796875 -3.335938 25.484375 -1.859375 C 23.171875 -0.390625 20.632812 0.34375 17.875 0.34375 C 15.019531 0.34375 12.425781 -0.425781 10.09375 -1.96875 C 7.757812 -3.507812 5.890625 -5.582031 4.484375 -8.1875 C 3.078125 -10.789062 2.375 -13.679688 2.375 -16.859375 C 2.375 -20.023438 3.078125 -22.910156 4.484375 -25.515625 C 5.890625 -28.128906 7.757812 -30.203125 10.09375 -31.734375 C 12.425781 -33.273438 15.019531 -34.046875 17.875 -34.046875 C 20.363281 -34.046875 22.59375 -33.457031 24.5625 -32.28125 C 26.539062 -31.101562 28.195312 -29.503906 29.53125 -27.484375 C 30.863281 -25.472656 31.78125 -23.175781 32.28125 -20.59375 L 12.578125 -20.59375 C 12.578125 -17.601562 13.070312 -14.875 14.0625 -12.40625 C 15.0625 -9.9375 16.398438 -7.972656 18.078125 -6.515625 C 19.753906 -5.066406 21.613281 -4.34375 23.65625 -4.34375 Z M 17.875 -33.640625 C 16.925781 -33.640625 16.144531 -33.285156 15.53125 -32.578125 C 14.914062 -31.878906 14.40625 -30.972656 14 -29.859375 C 13.59375 -28.753906 13.296875 -27.613281 13.109375 -26.4375 C 12.929688 -25.257812 12.796875 -24.171875 12.703125 -23.171875 C 12.617188 -22.179688 12.578125 -21.457031 12.578125 -21 L 23.046875 -21 C 22.640625 -29.425781 20.914062 -33.640625 17.875 -33.640625 Z M 17.875 -33.640625 "/></g></g></g><g fill="#832f1e" fill-opacity="1"><g transform="translate(253.743275, 190.142976)"><g><path d="M 17.875 -33.640625 C 17.289062 -33.640625 16.578125 -33.050781 15.734375 -31.875 C 14.898438 -30.695312 14.164062 -29.125 13.53125 -27.15625 C 12.894531 -25.1875 12.578125 -23 12.578125 -20.59375 C 12.578125 -17.601562 13.070312 -14.875 14.0625 -12.40625 C 15.0625 -9.9375 16.398438 -7.972656 18.078125 -6.515625 C 19.753906 -5.066406 21.613281 -4.34375 23.65625 -4.34375 C 24.96875 -4.34375 26.222656 -4.660156 27.421875 -5.296875 C 28.628906 -5.929688 29.707031 -6.816406 30.65625 -7.953125 L 31 -7.75 C 29.632812 -5.300781 27.796875 -3.335938 25.484375 -1.859375 C 23.171875 -0.390625 20.632812 0.34375 17.875 0.34375 C 15.019531 0.34375 12.425781 -0.425781 10.09375 -1.96875 C 7.757812 -3.507812 5.890625 -5.582031 4.484375 -8.1875 C 3.078125 -10.789062 2.375 -13.679688 2.375 -16.859375 C 2.375 -20.023438 3.078125 -22.910156 4.484375 -25.515625 C 5.890625 -28.128906 7.757812 -30.203125 10.09375 -31.734375 C 12.425781 -33.273438 15.019531 -34.046875 17.875 -34.046875 C 20.1875 -34.046875 22.335938 -33.546875 24.328125 -32.546875 C 26.328125 -31.554688 27.9375 -30.320312 29.15625 -28.84375 C 30.382812 -27.375 31 -25.914062 31 -24.46875 C 31 -23.019531 30.476562 -21.785156 29.4375 -20.765625 C 28.394531 -19.742188 27.144531 -19.234375 25.6875 -19.234375 C 24.28125 -19.234375 23.054688 -19.742188 22.015625 -20.765625 C 20.972656 -21.785156 20.453125 -23.019531 20.453125 -24.46875 C 20.453125 -25.644531 20.703125 -26.5625 21.203125 -27.21875 C 21.703125 -27.875 22.1875 -28.472656 22.65625 -29.015625 C 23.132812 -29.566406 23.375 -30.226562 23.375 -31 C 23.375 -31.8125 23.035156 -32.398438 22.359375 -32.765625 C 21.679688 -33.128906 20.898438 -33.363281 20.015625 -33.46875 C 19.128906 -33.582031 18.414062 -33.640625 17.875 -33.640625 Z M 17.875 -33.640625 "/></g></g></g><g fill="#832f1e" fill-opacity="1"><g transform="translate(282.556337, 190.142976)"><g><path d="M 32.5625 -3.734375 C 32.5625 -2.921875 32.832031 -2.195312 33.375 -1.5625 C 33.914062 -0.925781 34.570312 -0.539062 35.34375 -0.40625 L 35.34375 0 L 19.578125 0 L 19.578125 -0.40625 C 20.347656 -0.539062 21.003906 -0.925781 21.546875 -1.5625 C 22.085938 -2.195312 22.359375 -2.921875 22.359375 -3.734375 L 22.359375 -23.796875 C 22.359375 -24.972656 22.648438 -25.898438 23.234375 -26.578125 C 23.828125 -27.253906 24.414062 -27.898438 25 -28.515625 C 25.59375 -29.128906 25.890625 -29.84375 25.890625 -30.65625 C 25.890625 -31.425781 25.457031 -32.015625 24.59375 -32.421875 C 23.738281 -32.828125 22.632812 -33.03125 21.28125 -33.03125 C 19.601562 -33.03125 18.140625 -32.789062 16.890625 -32.3125 C 15.640625 -31.84375 14.90625 -31.5625 14.6875 -31.46875 L 14.6875 -3.734375 C 14.6875 -2.921875 14.957031 -2.195312 15.5 -1.5625 C 16.039062 -0.925781 16.695312 -0.539062 17.46875 -0.40625 L 17.46875 0 L 1.703125 0 L 1.703125 -0.40625 C 2.472656 -0.539062 3.128906 -0.925781 3.671875 -1.5625 C 4.210938 -2.195312 4.484375 -2.921875 4.484375 -3.734375 L 4.484375 -42.140625 C 4.484375 -42.953125 4.210938 -43.675781 3.671875 -44.3125 C 3.128906 -44.945312 2.472656 -45.332031 1.703125 -45.46875 L 1.703125 -45.875 L 13.328125 -47.578125 C 13.367188 -47.578125 13.398438 -47.578125 13.421875 -47.578125 C 13.441406 -47.578125 13.476562 -47.578125 13.53125 -47.578125 C 14.300781 -47.578125 14.6875 -47.171875 14.6875 -46.359375 L 14.6875 -31.953125 C 15.945312 -32.578125 17.359375 -33.082031 18.921875 -33.46875 C 20.492188 -33.851562 22.070312 -34.046875 23.65625 -34.046875 C 25.238281 -34.046875 26.707031 -33.738281 28.0625 -33.125 C 29.425781 -32.519531 30.515625 -31.546875 31.328125 -30.203125 C 32.148438 -28.867188 32.5625 -27.046875 32.5625 -24.734375 Z M 32.5625 -3.734375 "/></g></g></g><g fill="#832f1e" fill-opacity="1"><g transform="translate(80.05576, 223.467583)"><g><path d="M 0.84375 -7.078125 L 2.484375 -7.078125 L 2.484375 -1.328125 L 6.03125 -1.328125 L 6.03125 0 L 0.84375 0 Z M 0.84375 -7.078125 "/></g></g></g><g fill="#832f1e" fill-opacity="1"><g transform="translate(90.020405, 223.467583)"><g><path d="M 0.84375 -7.078125 L 2.484375 -7.078125 L 2.484375 0 L 0.84375 0 Z M 0.84375 -7.078125 "/></g></g></g><g fill="#832f1e" fill-opacity="1"><g transform="translate(97.197029, 223.467583)"><g><path d="M 7.640625 -7.078125 L 4.578125 0 L 2.96875 0 L -0.09375 -7.078125 L 1.671875 -7.078125 L 3.828125 -2.015625 L 6.015625 -7.078125 Z M 7.640625 -7.078125 "/></g></g></g><g fill="#832f1e" fill-opacity="1"><g transform="translate(108.596099, 223.467583)"><g><path d="M 5.34375 0 L 3.984375 -1.96875 L 2.484375 -1.96875 L 2.484375 0 L 0.84375 0 L 0.84375 -7.078125 L 3.90625 -7.078125 C 4.53125 -7.078125 5.070312 -6.972656 5.53125 -6.765625 C 6 -6.554688 6.351562 -6.257812 6.59375 -5.875 C 6.84375 -5.488281 6.96875 -5.035156 6.96875 -4.515625 C 6.96875 -3.984375 6.84375 -3.523438 6.59375 -3.140625 C 6.34375 -2.765625 5.984375 -2.476562 5.515625 -2.28125 L 7.109375 0 Z M 5.3125 -4.515625 C 5.3125 -4.910156 5.179688 -5.210938 4.921875 -5.421875 C 4.671875 -5.628906 4.300781 -5.734375 3.8125 -5.734375 L 2.484375 -5.734375 L 2.484375 -3.28125 L 3.8125 -3.28125 C 4.300781 -3.28125 4.671875 -3.382812 4.921875 -3.59375 C 5.179688 -3.8125 5.3125 -4.117188 5.3125 -4.515625 Z M 5.3125 -4.515625 "/></g></g></g><g fill="#832f1e" fill-opacity="1"><g transform="translate(119.884046, 223.467583)"><g><path d="M 4.265625 0.125 C 3.535156 0.125 2.875 -0.03125 2.28125 -0.34375 C 1.6875 -0.664062 1.222656 -1.101562 0.890625 -1.65625 C 0.554688 -2.21875 0.390625 -2.84375 0.390625 -3.53125 C 0.390625 -4.226562 0.554688 -4.851562 0.890625 -5.40625 C 1.222656 -5.96875 1.6875 -6.40625 2.28125 -6.71875 C 2.875 -7.039062 3.535156 -7.203125 4.265625 -7.203125 C 5.003906 -7.203125 5.664062 -7.039062 6.25 -6.71875 C 6.832031 -6.40625 7.289062 -5.96875 7.625 -5.40625 C 7.96875 -4.851562 8.140625 -4.226562 8.140625 -3.53125 C 8.140625 -2.84375 7.96875 -2.21875 7.625 -1.65625 C 7.289062 -1.101562 6.832031 -0.664062 6.25 -0.34375 C 5.664062 -0.03125 5.003906 0.125 4.265625 0.125 Z M 4.265625 -1.28125 C 4.679688 -1.28125 5.054688 -1.375 5.390625 -1.5625 C 5.734375 -1.75 6 -2.015625 6.1875 -2.359375 C 6.382812 -2.703125 6.484375 -3.09375 6.484375 -3.53125 C 6.484375 -3.976562 6.382812 -4.375 6.1875 -4.71875 C 6 -5.0625 5.734375 -5.328125 5.390625 -5.515625 C 5.054688 -5.703125 4.679688 -5.796875 4.265625 -5.796875 C 3.847656 -5.796875 3.46875 -5.703125 3.125 -5.515625 C 2.789062 -5.328125 2.523438 -5.0625 2.328125 -4.71875 C 2.140625 -4.375 2.046875 -3.976562 2.046875 -3.53125 C 2.046875 -3.09375 2.140625 -2.703125 2.328125 -2.359375 C 2.523438 -2.015625 2.789062 -1.75 3.125 -1.5625 C 3.46875 -1.375 3.847656 -1.28125 4.265625 -1.28125 Z M 4.265625 -1.28125 "/></g></g></g><g fill="#832f1e" fill-opacity="1"><g transform="translate(132.273065, 223.467583)"><g><path d="M 3.171875 0.125 C 2.609375 0.125 2.066406 0.0507812 1.546875 -0.09375 C 1.023438 -0.25 0.601562 -0.453125 0.28125 -0.703125 L 0.84375 -1.9375 C 1.144531 -1.707031 1.503906 -1.523438 1.921875 -1.390625 C 2.335938 -1.253906 2.753906 -1.1875 3.171875 -1.1875 C 3.640625 -1.1875 3.984375 -1.253906 4.203125 -1.390625 C 4.429688 -1.535156 4.546875 -1.722656 4.546875 -1.953125 C 4.546875 -2.117188 4.476562 -2.253906 4.34375 -2.359375 C 4.207031 -2.472656 4.035156 -2.5625 3.828125 -2.625 C 3.628906 -2.695312 3.351562 -2.773438 3 -2.859375 C 2.457031 -2.984375 2.015625 -3.109375 1.671875 -3.234375 C 1.328125 -3.367188 1.03125 -3.578125 0.78125 -3.859375 C 0.539062 -4.140625 0.421875 -4.519531 0.421875 -5 C 0.421875 -5.40625 0.53125 -5.773438 0.75 -6.109375 C 0.976562 -6.441406 1.316406 -6.707031 1.765625 -6.90625 C 2.210938 -7.101562 2.757812 -7.203125 3.40625 -7.203125 C 3.851562 -7.203125 4.289062 -7.144531 4.71875 -7.03125 C 5.15625 -6.925781 5.535156 -6.773438 5.859375 -6.578125 L 5.359375 -5.328125 C 4.703125 -5.703125 4.046875 -5.890625 3.390625 -5.890625 C 2.929688 -5.890625 2.59375 -5.8125 2.375 -5.65625 C 2.15625 -5.507812 2.046875 -5.316406 2.046875 -5.078125 C 2.046875 -4.835938 2.171875 -4.65625 2.421875 -4.53125 C 2.679688 -4.414062 3.070312 -4.300781 3.59375 -4.1875 C 4.125 -4.0625 4.5625 -3.929688 4.90625 -3.796875 C 5.25 -3.671875 5.546875 -3.46875 5.796875 -3.1875 C 6.046875 -2.914062 6.171875 -2.546875 6.171875 -2.078125 C 6.171875 -1.671875 6.054688 -1.300781 5.828125 -0.96875 C 5.597656 -0.632812 5.257812 -0.367188 4.8125 -0.171875 C 4.363281 0.0234375 3.816406 0.125 3.171875 0.125 Z M 3.171875 0.125 "/></g></g></g><g fill="#832f1e" fill-opacity="1"><g transform="translate(142.581169, 223.467583)"><g/></g></g><g fill="#832f1e" fill-opacity="1"><g transform="translate(149.303222, 223.467583)"><g><path d="M 6.28125 0.125 L 5.421875 -0.671875 C 4.753906 -0.140625 3.96875 0.125 3.0625 0.125 C 2.550781 0.125 2.085938 0.0390625 1.671875 -0.125 C 1.265625 -0.289062 0.941406 -0.519531 0.703125 -0.8125 C 0.472656 -1.113281 0.359375 -1.445312 0.359375 -1.8125 C 0.359375 -2.257812 0.484375 -2.648438 0.734375 -2.984375 C 0.984375 -3.316406 1.378906 -3.632812 1.921875 -3.9375 C 1.660156 -4.195312 1.472656 -4.445312 1.359375 -4.6875 C 1.242188 -4.925781 1.1875 -5.171875 1.1875 -5.421875 C 1.1875 -5.765625 1.273438 -6.066406 1.453125 -6.328125 C 1.640625 -6.597656 1.898438 -6.804688 2.234375 -6.953125 C 2.566406 -7.097656 2.953125 -7.171875 3.390625 -7.171875 C 4.003906 -7.171875 4.492188 -7.019531 4.859375 -6.71875 C 5.234375 -6.425781 5.421875 -6.035156 5.421875 -5.546875 C 5.421875 -5.179688 5.3125 -4.851562 5.09375 -4.5625 C 4.875 -4.28125 4.523438 -4.007812 4.046875 -3.75 L 5.34375 -2.546875 C 5.488281 -2.867188 5.601562 -3.238281 5.6875 -3.65625 L 6.953125 -3.25 C 6.816406 -2.625 6.601562 -2.085938 6.3125 -1.640625 L 7.140625 -0.875 Z M 3.390625 -6.09375 C 3.160156 -6.09375 2.972656 -6.03125 2.828125 -5.90625 C 2.691406 -5.789062 2.625 -5.640625 2.625 -5.453125 C 2.625 -5.304688 2.660156 -5.171875 2.734375 -5.046875 C 2.804688 -4.921875 2.953125 -4.753906 3.171875 -4.546875 C 3.515625 -4.734375 3.753906 -4.894531 3.890625 -5.03125 C 4.023438 -5.175781 4.09375 -5.335938 4.09375 -5.515625 C 4.09375 -5.679688 4.03125 -5.816406 3.90625 -5.921875 C 3.789062 -6.035156 3.617188 -6.09375 3.390625 -6.09375 Z M 3.171875 -1.109375 C 3.660156 -1.109375 4.101562 -1.25 4.5 -1.53125 L 2.796875 -3.125 C 2.472656 -2.9375 2.242188 -2.753906 2.109375 -2.578125 C 1.972656 -2.410156 1.90625 -2.210938 1.90625 -1.984375 C 1.90625 -1.722656 2.019531 -1.507812 2.25 -1.34375 C 2.476562 -1.1875 2.785156 -1.109375 3.171875 -1.109375 Z M 3.171875 -1.109375 "/></g></g></g><g fill="#832f1e" fill-opacity="1"><g transform="translate(160.520469, 223.467583)"><g/></g></g><g fill="#832f1e" fill-opacity="1"><g transform="translate(167.242522, 223.467583)"><g><path d="M 2.3125 -5.734375 L 0.046875 -5.734375 L 0.046875 -7.078125 L 6.203125 -7.078125 L 6.203125 -5.734375 L 3.9375 -5.734375 L 3.9375 0 L 2.3125 0 Z M 2.3125 -5.734375 "/></g></g></g><g fill="#832f1e" fill-opacity="1"><g transform="translate(177.348593, 223.467583)"><g><path d="M 6.3125 -1.3125 L 6.3125 0 L 0.84375 0 L 0.84375 -7.078125 L 6.1875 -7.078125 L 6.1875 -5.765625 L 2.46875 -5.765625 L 2.46875 -4.21875 L 5.75 -4.21875 L 5.75 -2.953125 L 2.46875 -2.953125 L 2.46875 -1.3125 Z M 6.3125 -1.3125 "/></g></g></g><g fill="#832f1e" fill-opacity="1"><g transform="translate(187.990041, 223.467583)"><g><path d="M 4.21875 0.125 C 3.5 0.125 2.847656 -0.03125 2.265625 -0.34375 C 1.679688 -0.65625 1.222656 -1.085938 0.890625 -1.640625 C 0.554688 -2.203125 0.390625 -2.832031 0.390625 -3.53125 C 0.390625 -4.238281 0.554688 -4.867188 0.890625 -5.421875 C 1.222656 -5.972656 1.679688 -6.40625 2.265625 -6.71875 C 2.847656 -7.039062 3.503906 -7.203125 4.234375 -7.203125 C 4.847656 -7.203125 5.398438 -7.09375 5.890625 -6.875 C 6.390625 -6.65625 6.804688 -6.34375 7.140625 -5.9375 L 6.09375 -4.96875 C 5.613281 -5.519531 5.019531 -5.796875 4.3125 -5.796875 C 3.875 -5.796875 3.484375 -5.703125 3.140625 -5.515625 C 2.796875 -5.328125 2.523438 -5.0625 2.328125 -4.71875 C 2.140625 -4.375 2.046875 -3.976562 2.046875 -3.53125 C 2.046875 -3.09375 2.140625 -2.703125 2.328125 -2.359375 C 2.523438 -2.015625 2.796875 -1.75 3.140625 -1.5625 C 3.484375 -1.375 3.875 -1.28125 4.3125 -1.28125 C 5.019531 -1.28125 5.613281 -1.554688 6.09375 -2.109375 L 7.140625 -1.140625 C 6.804688 -0.734375 6.390625 -0.421875 5.890625 -0.203125 C 5.390625 0.015625 4.832031 0.125 4.21875 0.125 Z M 4.21875 0.125 "/></g></g></g><g fill="#832f1e" fill-opacity="1"><g transform="translate(199.25779, 223.467583)"><g><path d="M 7.328125 -7.078125 L 7.328125 0 L 5.6875 0 L 5.6875 -2.90625 L 2.484375 -2.90625 L 2.484375 0 L 0.84375 0 L 0.84375 -7.078125 L 2.484375 -7.078125 L 2.484375 -4.28125 L 5.6875 -4.28125 L 5.6875 -7.078125 Z M 7.328125 -7.078125 "/></g></g></g></svg>