<svg xmlns="http://www.w3.org/2000/svg" xmlns:xlink="http://www.w3.org/1999/xlink" width="500" zoomAndPan="magnify" viewBox="0 0 375 374.999991" height="500" preserveAspectRatio="xMidYMid meet" version="1.0"><defs><g/><clipPath id="784d564bb2"><rect x="0" width="56" y="0" height="78"/></clipPath></defs><g fill="#832f1e" fill-opacity="0.4"><g transform="translate(141.44549, 233.253001)"><g><path d="M 70.203125 -54.953125 C 75.703125 -54.742188 80.65625 -53.367188 85.0625 -50.828125 C 89.476562 -48.285156 93.007812 -44.988281 95.65625 -40.9375 C 98.300781 -36.894531 99.625 -32.378906 99.625 -27.390625 C 99.625 -22.304688 98.222656 -17.710938 95.421875 -13.609375 C 92.617188 -9.515625 88.882812 -6.222656 84.21875 -3.734375 C 79.550781 -1.242188 74.363281 0 68.65625 0 L 4.671875 0 L 4.671875 -0.9375 C 7.265625 -0.9375 9.46875 -1.84375 11.28125 -3.65625 C 13.101562 -5.46875 14.015625 -7.675781 14.015625 -10.28125 L 14.015625 -98.703125 C 14.015625 -101.296875 13.101562 -103.5 11.28125 -105.3125 C 9.46875 -107.125 7.265625 -108.03125 4.671875 -108.03125 L 4.671875 -108.96875 L 63.203125 -108.96875 C 68.285156 -108.96875 72.875 -107.722656 76.96875 -105.234375 C 81.070312 -102.742188 84.34375 -99.421875 86.78125 -95.265625 C 89.226562 -91.117188 90.453125 -86.503906 90.453125 -81.421875 C 90.453125 -75.085938 88.53125 -69.476562 84.6875 -64.59375 C 80.84375 -59.71875 76.015625 -56.503906 70.203125 -54.953125 Z M 41.40625 -108.03125 L 41.40625 -54.953125 L 47.171875 -54.953125 C 50.078125 -54.953125 52.722656 -56.144531 55.109375 -58.53125 C 57.492188 -60.914062 59.382812 -64.101562 60.78125 -68.09375 C 62.1875 -72.09375 62.890625 -76.535156 62.890625 -81.421875 C 62.890625 -86.398438 62.1875 -90.882812 60.78125 -94.875 C 59.382812 -98.875 57.492188 -102.066406 55.109375 -104.453125 C 52.722656 -106.835938 50.078125 -108.03125 47.171875 -108.03125 Z M 50.28125 -0.9375 C 53.601562 -0.9375 56.640625 -2.128906 59.390625 -4.515625 C 62.140625 -6.898438 64.316406 -10.113281 65.921875 -14.15625 C 67.535156 -18.207031 68.34375 -22.671875 68.34375 -27.546875 C 68.34375 -32.429688 67.535156 -36.867188 65.921875 -40.859375 C 64.316406 -44.859375 62.140625 -48.050781 59.390625 -50.4375 C 56.640625 -52.820312 53.601562 -54.015625 50.28125 -54.015625 L 41.40625 -54.015625 L 41.40625 -0.9375 Z M 50.28125 -0.9375 "/></g></g></g><g fill="#832f1e" fill-opacity="1"><g transform="translate(134.565384, 226.372896)"><g><path d="M 70.203125 -54.953125 C 75.703125 -54.742188 80.65625 -53.367188 85.0625 -50.828125 C 89.476562 -48.285156 93.007812 -44.988281 95.65625 -40.9375 C 98.300781 -36.894531 99.625 -32.378906 99.625 -27.390625 C 99.625 -22.304688 98.222656 -17.710938 95.421875 -13.609375 C 92.617188 -9.515625 88.882812 -6.222656 84.21875 -3.734375 C 79.550781 -1.242188 74.363281 0 68.65625 0 L 4.671875 0 L 4.671875 -0.9375 C 7.265625 -0.9375 9.46875 -1.84375 11.28125 -3.65625 C 13.101562 -5.46875 14.015625 -7.675781 14.015625 -10.28125 L 14.015625 -98.703125 C 14.015625 -101.296875 13.101562 -103.5 11.28125 -105.3125 C 9.46875 -107.125 7.265625 -108.03125 4.671875 -108.03125 L 4.671875 -108.96875 L 63.203125 -108.96875 C 68.285156 -108.96875 72.875 -107.722656 76.96875 -105.234375 C 81.070312 -102.742188 84.34375 -99.421875 86.78125 -95.265625 C 89.226562 -91.117188 90.453125 -86.503906 90.453125 -81.421875 C 90.453125 -75.085938 88.53125 -69.476562 84.6875 -64.59375 C 80.84375 -59.71875 76.015625 -56.503906 70.203125 -54.953125 Z M 41.40625 -108.03125 L 41.40625 -54.953125 L 47.171875 -54.953125 C 50.078125 -54.953125 52.722656 -56.144531 55.109375 -58.53125 C 57.492188 -60.914062 59.382812 -64.101562 60.78125 -68.09375 C 62.1875 -72.09375 62.890625 -76.535156 62.890625 -81.421875 C 62.890625 -86.398438 62.1875 -90.882812 60.78125 -94.875 C 59.382812 -98.875 57.492188 -102.066406 55.109375 -104.453125 C 52.722656 -106.835938 50.078125 -108.03125 47.171875 -108.03125 Z M 50.28125 -0.9375 C 53.601562 -0.9375 56.640625 -2.128906 59.390625 -4.515625 C 62.140625 -6.898438 64.316406 -10.113281 65.921875 -14.15625 C 67.535156 -18.207031 68.34375 -22.671875 68.34375 -27.546875 C 68.34375 -32.429688 67.535156 -36.867188 65.921875 -40.859375 C 64.316406 -44.859375 62.140625 -48.050781 59.390625 -50.4375 C 56.640625 -52.820312 53.601562 -54.015625 50.28125 -54.015625 L 41.40625 -54.015625 L 41.40625 -0.9375 Z M 50.28125 -0.9375 "/></g></g></g><g transform="matrix(1, 0, 0, 1, 194, 134)"><g clip-path="url(#784d564bb2)"><g fill="#832f1e" fill-opacity="1"><g transform="translate(4.465041, 17.523728)"><g><path d="M 4.96875 -2.390625 C 5.257812 -2.265625 5.476562 -2.078125 5.625 -1.828125 C 5.78125 -1.578125 5.84375 -1.285156 5.8125 -0.953125 C 5.769531 -0.472656 5.550781 -0.125 5.15625 0.09375 C 4.757812 0.320312 4.203125 0.40625 3.484375 0.34375 L 0.65625 0.0625 L 1.1875 -5.421875 L 3.859375 -5.15625 C 4.535156 -5.09375 5.035156 -4.914062 5.359375 -4.625 C 5.691406 -4.332031 5.835938 -3.96875 5.796875 -3.53125 C 5.773438 -3.257812 5.6875 -3.023438 5.53125 -2.828125 C 5.382812 -2.640625 5.195312 -2.492188 4.96875 -2.390625 Z M 2.34375 -4.34375 L 2.21875 -3.046875 L 3.484375 -2.921875 C 3.796875 -2.890625 4.039062 -2.921875 4.21875 -3.015625 C 4.394531 -3.109375 4.492188 -3.265625 4.515625 -3.484375 C 4.535156 -3.703125 4.46875 -3.867188 4.3125 -3.984375 C 4.15625 -4.109375 3.921875 -4.1875 3.609375 -4.21875 Z M 3.484375 -0.625 C 3.816406 -0.59375 4.070312 -0.625 4.25 -0.71875 C 4.4375 -0.820312 4.539062 -0.988281 4.5625 -1.21875 C 4.601562 -1.664062 4.285156 -1.921875 3.609375 -1.984375 L 2.125 -2.125 L 2 -0.765625 Z M 3.484375 -0.625 "/></g></g></g><g fill="#832f1e" fill-opacity="1"><g transform="translate(12.995367, 18.811354)"><g><path d="M 2.3125 -5.046875 L 3.515625 -4.65625 L 1.828125 0.59375 L 0.625 0.203125 Z M 2.3125 -5.046875 "/></g></g></g><g fill="#832f1e" fill-opacity="1"><g transform="translate(17.929037, 20.494546)"><g><path d="M 5.5 -0.140625 C 5.726562 0.0976562 5.859375 0.363281 5.890625 0.65625 C 5.921875 0.945312 5.851562 1.242188 5.6875 1.546875 C 5.445312 1.960938 5.097656 2.1875 4.640625 2.21875 C 4.191406 2.257812 3.65625 2.101562 3.03125 1.75 L 0.5625 0.328125 L 3.3125 -4.453125 L 5.640625 -3.109375 C 6.234375 -2.773438 6.617188 -2.398438 6.796875 -1.984375 C 6.972656 -1.578125 6.953125 -1.1875 6.734375 -0.8125 C 6.597656 -0.582031 6.421875 -0.410156 6.203125 -0.296875 C 5.992188 -0.179688 5.757812 -0.128906 5.5 -0.140625 Z M 3.9375 -2.984375 L 3.296875 -1.859375 L 4.390625 -1.21875 C 4.660156 -1.0625 4.890625 -0.988281 5.078125 -1 C 5.273438 -1.007812 5.429688 -1.113281 5.546875 -1.3125 C 5.648438 -1.5 5.65625 -1.675781 5.5625 -1.84375 C 5.476562 -2.019531 5.300781 -2.1875 5.03125 -2.34375 Z M 3.421875 0.875 C 3.710938 1.039062 3.957031 1.113281 4.15625 1.09375 C 4.363281 1.082031 4.523438 0.976562 4.640625 0.78125 C 4.867188 0.382812 4.691406 0.0195312 4.109375 -0.3125 L 2.828125 -1.0625 L 2.140625 0.125 Z M 3.421875 0.875 "/></g></g></g><g fill="#832f1e" fill-opacity="1"><g transform="translate(25.15726, 25.11614)"><g><path d="M 4.296875 -3.515625 L 5.203125 -2.640625 L 2.109375 0.578125 L 4.109375 2.515625 L 3.375 3.265625 L 0.46875 0.453125 Z M 4.296875 -3.515625 "/></g></g></g><g fill="#832f1e" fill-opacity="1"><g transform="translate(30.216399, 30.512331)"><g><path d="M 4.90625 -2.609375 L 5.625 -1.5625 L 1.09375 1.578125 L 0.375 0.53125 Z M 4.90625 -2.609375 "/></g></g></g><g fill="#832f1e" fill-opacity="1"><g transform="translate(33.131829, 34.82169)"><g><path d="M 1.15625 3.109375 C 0.9375 2.578125 0.851562 2.054688 0.90625 1.546875 C 0.96875 1.035156 1.148438 0.578125 1.453125 0.171875 C 1.765625 -0.234375 2.171875 -0.535156 2.671875 -0.734375 C 3.171875 -0.941406 3.664062 -1.003906 4.15625 -0.921875 C 4.65625 -0.847656 5.109375 -0.644531 5.515625 -0.3125 C 5.921875 0.0078125 6.234375 0.4375 6.453125 0.96875 C 6.671875 1.5 6.742188 2.019531 6.671875 2.53125 C 6.609375 3.050781 6.425781 3.515625 6.125 3.921875 C 5.820312 4.328125 5.421875 4.632812 4.921875 4.84375 C 4.421875 5.039062 3.921875 5.097656 3.421875 5.015625 C 2.921875 4.941406 2.472656 4.738281 2.078125 4.40625 C 1.679688 4.070312 1.375 3.640625 1.15625 3.109375 Z M 2.171875 2.703125 C 2.296875 3.003906 2.472656 3.242188 2.703125 3.421875 C 2.929688 3.609375 3.195312 3.722656 3.5 3.765625 C 3.8125 3.804688 4.125 3.765625 4.4375 3.640625 C 4.757812 3.515625 5.015625 3.328125 5.203125 3.078125 C 5.398438 2.835938 5.519531 2.566406 5.5625 2.265625 C 5.601562 1.972656 5.5625 1.675781 5.4375 1.375 C 5.3125 1.070312 5.128906 0.828125 4.890625 0.640625 C 4.660156 0.453125 4.390625 0.34375 4.078125 0.3125 C 3.773438 0.28125 3.460938 0.328125 3.140625 0.453125 C 2.828125 0.578125 2.570312 0.753906 2.375 0.984375 C 2.1875 1.222656 2.070312 1.492188 2.03125 1.796875 C 2 2.097656 2.046875 2.398438 2.171875 2.703125 Z M 2.171875 2.703125 "/></g></g></g><g fill="#832f1e" fill-opacity="1"><g transform="translate(36.1681, 43.485278)"><g><path d="M 4.671875 1.203125 L 4.4375 -0.546875 L 5.46875 -0.671875 L 6.09375 4.078125 L 5.0625 4.203125 L 4.828125 2.46875 L 0.390625 3.046875 L 0.234375 1.78125 Z M 4.671875 1.203125 "/></g></g></g><g fill="#832f1e" fill-opacity="1"><g transform="translate(36.848843, 50.8999)"><g><path d="M 0.5 5 L -0.53125 4.890625 L -0.0625 0.65625 L 5.421875 1.25 L 4.96875 5.375 L 3.9375 5.265625 L 4.25 2.390625 L 3.078125 2.265625 L 2.796875 4.8125 L 1.796875 4.703125 L 2.078125 2.15625 L 0.828125 2.015625 Z M 0.5 5 "/></g></g></g><g fill="#832f1e" fill-opacity="1"><g transform="translate(35.723583, 58.661442)"><g><path d="M -1.25 3.0625 C -1.050781 2.53125 -0.753906 2.09375 -0.359375 1.75 C 0.0234375 1.414062 0.460938 1.203125 0.953125 1.109375 C 1.453125 1.015625 1.957031 1.0625 2.46875 1.25 C 2.988281 1.445312 3.40625 1.742188 3.71875 2.140625 C 4.03125 2.535156 4.21875 2.984375 4.28125 3.484375 C 4.351562 3.992188 4.289062 4.515625 4.09375 5.046875 C 3.925781 5.492188 3.695312 5.867188 3.40625 6.171875 C 3.125 6.472656 2.785156 6.691406 2.390625 6.828125 L 1.96875 5.796875 C 2.507812 5.597656 2.875 5.242188 3.0625 4.734375 C 3.1875 4.410156 3.222656 4.097656 3.171875 3.796875 C 3.128906 3.492188 3.003906 3.222656 2.796875 2.984375 C 2.597656 2.753906 2.335938 2.578125 2.015625 2.453125 C 1.703125 2.335938 1.390625 2.300781 1.078125 2.34375 C 0.773438 2.394531 0.507812 2.519531 0.28125 2.71875 C 0.0625 2.914062 -0.109375 3.175781 -0.234375 3.5 C -0.421875 4.007812 -0.382812 4.519531 -0.125 5.03125 L -1.109375 5.53125 C -1.316406 5.164062 -1.429688 4.773438 -1.453125 4.359375 C -1.484375 3.941406 -1.414062 3.507812 -1.25 3.0625 Z M -1.25 3.0625 "/></g></g></g><g fill="#832f1e" fill-opacity="1"><g transform="translate(32.553009, 66.338263)"><g><path d="M 1.171875 7.84375 L -3.3125 4.640625 L -2.578125 3.609375 L -0.734375 4.921875 L 0.71875 2.875 L -1.125 1.5625 L -0.375 0.53125 L 4.109375 3.734375 L 3.359375 4.765625 L 1.59375 3.515625 L 0.140625 5.5625 L 1.90625 6.8125 Z M 1.171875 7.84375 "/></g></g></g></g></g></svg>