<?xml version="1.0" encoding="UTF-8"?>
<svg width="120" height="120" viewBox="0 0 120 120" xmlns="http://www.w3.org/2000/svg" role="img" aria-label="Bibliotech logo">
  <defs>
    <linearGradient id="g1" x1="0" x2="1" y1="0" y2="1">
      <stop offset="0%" stop-color="#ffffff" stop-opacity="1"/>
      <stop offset="100%" stop-color="#f3f3f3" stop-opacity="1"/>
    </linearGradient>
  </defs>

  <!-- rounded background -->
  <rect x="4" y="4" width="112" height="112" rx="18" fill="url(#g1)" />

  <!-- inner pale panel -->
  <rect x="22" y="22" width="76" height="76" rx="12" fill="#ffffff" />

  <!-- people icon (central) -->
  <g transform="translate(28 30)" fill="#111111">
    <!-- center head -->
    <circle cx="34" cy="12" r="9" />
    <!-- left head -->
    <circle cx="14" cy="16" r="6" />
    <!-- right head (triangle-like) -->
    <path d="M62 18c0-3.3-2.7-6-6-6s-6 2.7-6 6 2.7 6 6 6 6-2.7 6-6z" />

    <!-- central body -->
    <path d="M12 56c2-12 22-14 34-14s32 2 34 14v6H12v-6z" />
    <!-- right small body -->
    <path d="M46 54c0-6 6-8 12-8s12 2 12 8v4H46v-4z" />
  </g>
</svg>
